<?xml version="1.0" encoding="UTF-8" standalone="no"?>
<!-- Created with Inkscape (http://www.inkscape.org/) -->

<svg
   xmlns:dc="http://purl.org/dc/elements/1.1/"
   xmlns:cc="http://creativecommons.org/ns#"
   xmlns:rdf="http://www.w3.org/1999/02/22-rdf-syntax-ns#"
   xmlns:svg="http://www.w3.org/2000/svg"
   xmlns="http://www.w3.org/2000/svg"
   xmlns:sodipodi="http://sodipodi.sourceforge.net/DTD/sodipodi-0.dtd"
   xmlns:inkscape="http://www.inkscape.org/namespaces/inkscape"
   width="708.66138"
   height="708.66138"
   id="svg2"
   version="1.1"
   inkscape:version="0.48.4 r9939"
   sodipodi:docname="Novo documento 1">
  <defs
     id="defs4">
    <marker
       inkscape:stockid="Arrow1Lend"
       orient="auto"
       refY="0.0"
       refX="0.0"
       id="Arrow1Lend"
       style="overflow:visible;">
      <path
         id="path3869"
         d="M 0.0,0.0 L 5.0,-5.0 L -12.5,0.0 L 5.0,5.0 L 0.0,0.0 z "
         style="fill-rule:evenodd;stroke:#000000;stroke-width:1.0pt;"
         transform="scale(0.8) rotate(180) translate(12.5,0)" />
    </marker>
    <inkscape:path-effect
       effect="spiro"
       id="path-effect3860"
       is_visible="true" />
    <inkscape:path-effect
       effect="spiro"
       id="path-effect3856"
       is_visible="true" />
    <inkscape:path-effect
       effect="spiro"
       id="path-effect3842"
       is_visible="true" />
    <inkscape:path-effect
       effect="spiro"
       id="path-effect3832"
       is_visible="true" />
    <inkscape:path-effect
       effect="spiro"
       id="path-effect3828"
       is_visible="true" />
    <inkscape:path-effect
       effect="spiro"
       id="path-effect3783"
       is_visible="true" />
    <inkscape:path-effect
       effect="spiro"
       id="path-effect3779"
       is_visible="true" />
    <inkscape:path-effect
       effect="spiro"
       id="path-effect3775"
       is_visible="true" />
    <inkscape:path-effect
       effect="spiro"
       id="path-effect3771"
       is_visible="true" />
    <inkscape:path-effect
       effect="spiro"
       id="path-effect3767"
       is_visible="true" />
    <inkscape:path-effect
       effect="spiro"
       id="path-effect3761"
       is_visible="true" />
    <inkscape:path-effect
       effect="spiro"
       id="path-effect3775-1"
       is_visible="true" />
    <inkscape:path-effect
       effect="spiro"
       id="path-effect3779-7"
       is_visible="true" />
  </defs>
  <sodipodi:namedview
     id="base"
     pagecolor="#ffffff"
     bordercolor="#666666"
     borderopacity="1.0"
     inkscape:pageopacity="0.0"
     inkscape:pageshadow="2"
     inkscape:zoom="1.1726334"
     inkscape:cx="354.33069"
     inkscape:cy="354.33069"
     inkscape:document-units="cm"
     inkscape:current-layer="g3785"
     showgrid="false"
     units="cm"
     inkscape:window-width="1920"
     inkscape:window-height="1018"
     inkscape:window-x="-8"
     inkscape:window-y="-8"
     inkscape:window-maximized="1" />
  <metadata
     id="metadata7">
    <rdf:RDF>
      <cc:Work
         rdf:about="">
        <dc:format>image/svg+xml</dc:format>
        <dc:type
           rdf:resource="http://purl.org/dc/dcmitype/StillImage" />
        <dc:title></dc:title>
      </cc:Work>
    </rdf:RDF>
  </metadata>
  <g
     inkscape:label="Camada 1"
     inkscape:groupmode="layer"
     id="layer1"
     transform="translate(0,-343.69947)">
    <path
       style="fill:#e6e6e6;stroke:#e6e6e6;stroke-width:1px;stroke-linecap:butt;stroke-linejoin:miter;stroke-opacity:1"
       d="m 128.44061,115.60346 0.603,-74.47143 c 4.33252,0.401315 8.65566,0.904005 12.96467,1.507519 5.35135,0.749502 10.68091,1.654523 15.9797,2.713534 2.71807,1.195769 5.43163,2.401796 8.1406,3.618045 3.3235,1.492154 6.64008,2.999694 9.94962,4.522557 2.86593,1.936014 5.68125,3.946954 8.44211,6.030075 2.456,1.853096 4.86889,3.763308 7.23609,5.728572 2.48925,2.540315 4.90271,5.154898 7.23609,7.839098 1.96725,2.263024 3.87758,4.575527 5.72857,6.934587 l 4.22105,8.140601 3.01504,7.839098 c 0.69452,2.793382 1.29796,5.609414 1.80902,8.442104 0.34326,1.90262 0.64486,3.81275 0.90451,5.72857 l 0,4.52256 -86.23007,0.90451"
       id="path3830"
       inkscape:path-effect="#path-effect3832"
       inkscape:original-d="m 128.44061,115.60346 0.603,-74.47143 12.96467,1.507519 15.9797,2.713534 8.1406,3.618045 9.94962,4.522557 8.44211,6.030075 7.23609,5.728572 7.23609,7.839098 5.72857,6.934587 4.22105,8.140601 3.01504,7.839098 1.80902,8.442104 0.90451,5.72857 0,4.52256 z"
       inkscape:connector-curvature="0"
       transform="translate(0,343.69947)" />
    <path
       style="fill:#999999;stroke:#cccccc;stroke-width:1px;stroke-linecap:butt;stroke-linejoin:miter;stroke-opacity:1"
       d="m 90.451131,154.19595 38.290979,-38.89399 85.62707,-0.60301 -0.90451,3.01504 -4.52256,3.01504 -118.490979,33.46692"
       id="path3826"
       inkscape:path-effect="#path-effect3828"
       inkscape:original-d="m 90.451131,154.19595 38.290979,-38.89399 85.62707,-0.60301 -0.90451,3.01504 -4.52256,3.01504 z"
       inkscape:connector-curvature="0"
       transform="translate(0,343.69947)"
       sodipodi:nodetypes="cccccc" />
    <path
       sodipodi:type="arc"
       style="fill:none;fill-opacity:1;stroke:#000000;stroke-width:2.83464567000000000;stroke-linejoin:miter;stroke-miterlimit:4;stroke-opacity:1;stroke-dasharray:none;stroke-dashoffset:0"
       id="path2985"
       sodipodi:cx="129.19638"
       sodipodi:cy="115.55189"
       sodipodi:rx="85.704536"
       sodipodi:ry="73.765594"
       d="m 214.90092,115.55189 a 85.704536,73.765594 0 1 1 -171.409076,0 85.704536,73.765594 0 1 1 171.409076,0 z"
       transform="translate(0,343.69947)" />
    <text
       xml:space="preserve"
       style="font-size:24px;font-style:normal;font-variant:normal;font-weight:normal;font-stretch:normal;line-height:125%;letter-spacing:0px;word-spacing:0px;fill:#000000;fill-opacity:1;stroke:none;font-family:Arial;-inkscape-font-specification:Arial"
       x="98.922646"
       y="562.01147"
       id="text3755"
       sodipodi:linespacing="125%"><tspan
         sodipodi:role="line"
         id="tspan3757"
         x="98.922646"
         y="562.01147">Terra</tspan></text>
    <path
       style="fill:none;stroke:#000000;stroke-width:1.77165354000000000;stroke-linecap:butt;stroke-linejoin:miter;stroke-opacity:1;stroke-miterlimit:4;stroke-dasharray:none"
       d="m 128.77,115.12549 86.13092,0"
       id="path3769"
       inkscape:path-effect="#path-effect3771"
       inkscape:original-d="m 128.77,115.12549 86.13092,0"
       inkscape:connector-curvature="0"
       transform="translate(0,343.69947)" />
    <g
       id="g3788"
       style="fill:#666666">
      <path
         sodipodi:nodetypes="caaaaacc"
         inkscape:connector-curvature="0"
         inkscape:original-d="m 90.659758,497.11182 c -0.568521,-7.39077 -1.672215,-14.75889 -2.007067,-22.17232 -0.282183,-6.24736 -0.311521,-12.51522 0,-18.76119 0.284614,-5.70647 0.610463,-11.44799 1.705563,-17.05563 0.965446,-4.94372 2.37094,-9.8294 4.263908,-14.49728 2.293659,-5.65595 5.099002,-11.1537 8.527818,-16.20285 2.94464,-4.33618 6.67204,-8.09313 10.23338,-11.93894 7.91624,-7.78427 12.31376,-8.28015 15.95307,-10.83639"
         inkscape:path-effect="#path-effect3779"
         id="path3777"
         d="m 90.659758,497.11182 c -1.038233,-7.35113 -1.708372,-14.75424 -2.007067,-22.17232 -0.251673,-6.25027 -0.239728,-12.51045 0,-18.76119 0.219177,-5.71489 0.630765,-11.43844 1.705563,-17.05563 0.94802,-4.95461 2.409375,-9.80605 4.263908,-14.49728 2.248433,-5.68764 5.080213,-11.15125 8.527818,-16.20285 2.96096,-4.33854 6.37708,-8.37254 10.23338,-11.93894 4.73723,-4.3811 10.13447,-8.04727 15.95307,-10.83639"
         style="fill:#666666;stroke:#000000;stroke-width:1.77165353;stroke-linecap:butt;stroke-linejoin:miter;stroke-miterlimit:4;stroke-opacity:1;stroke-dasharray:none" />
      <g
         id="g3785"
         style="fill:#666666">
        <path
           style="fill:#cccccc;stroke:#000000;stroke-width:1.77165354;stroke-linecap:butt;stroke-linejoin:miter;stroke-opacity:1;stroke-miterlimit:4;stroke-dasharray:none"
           d="m 156.91179,614.85542 0,-173.11463 c 30.97911,-0.7006 61.97406,-0.7006 92.95317,0 27.29548,0.61729 54.57571,1.7783 81.86702,2.55834 16.76742,0.47925 33.53989,0.81469 50.31411,0.85278 20.46708,0.0465 40.93612,-0.34973 61.40026,0 25.87857,0.44226 51.72524,2.077 77.60311,2.55835 19.33203,0.35959 38.67604,0.0751 57.98914,-0.85279 l 36.6696,-3.41112 0.85278,172.26185 -459.64919,-0.85278"
           id="path3854"
           inkscape:path-effect="#path-effect3856"
           inkscape:original-d="m 156.91179,614.85542 0,-173.11463 92.95317,0 81.86702,2.55834 50.31411,0.85278 61.40026,0 77.60311,2.55835 57.98914,-0.85279 36.6696,-3.41112 0.85278,172.26185 z"
           inkscape:connector-curvature="0"
           transform="translate(0,343.69947)" />
        <path
           style="fill:#666666;stroke:#000000;stroke-width:1.77165353;stroke-linecap:butt;stroke-linejoin:miter;stroke-miterlimit:4;stroke-opacity:1;stroke-dasharray:none"
           d="m 128.77,41.588247 0,73.537243 -38.624941,38.92645"
           id="path3773"
           inkscape:path-effect="#path-effect3775"
           inkscape:original-d="m 128.77,41.588247 0,73.537243 -38.624941,38.92645"
           inkscape:connector-curvature="0"
           transform="translate(0,343.69947)"
           sodipodi:nodetypes="ccc" />
        <rect
           style="fill:none;stroke:#ff0000;stroke-width:1.77165353000000000;stroke-linejoin:miter;stroke-miterlimit:4;stroke-opacity:1;stroke-dasharray:5.31496060000000000, 1.77165353000000000;stroke-dashoffset:0"
           id="rect3836"
           width="28.99457"
           height="21.319536"
           x="364.858"
           y="205.42172"
           transform="matrix(0.81159324,0.58422291,-0.58422291,0.81159324,0,0)" />
        <rect
           style="fill:none;stroke:#ff0000;stroke-width:1.77165353000000000;stroke-linejoin:miter;stroke-miterlimit:4;stroke-opacity:1;stroke-dasharray:5.31496060000000000, 1.77165353000000000;stroke-dashoffset:0"
           id="rect3838"
           width="459.6492"
           height="306.14853"
           x="156.91179"
           y="309.55966"
           transform="translate(0,343.69947)" />
        <text
           xml:space="preserve"
           style="font-size:16px;font-style:normal;font-variant:normal;font-weight:normal;font-stretch:normal;text-align:center;line-height:125%;letter-spacing:0px;word-spacing:0px;text-anchor:middle;fill:#000000;fill-opacity:1;stroke:none;font-family:Arial;-inkscape-font-specification:Arial"
           x="557.66327"
           y="811.24622"
           id="text3844"
           sodipodi:linespacing="125%"><tspan
             sodipodi:role="line"
             id="tspan3846"
             x="559.88202"
             y="811.24622">Superfície </tspan><tspan
             sodipodi:role="line"
             x="557.66327"
             y="831.24622"
             id="tspan3848">física da Terra</tspan></text>
        <path
           sodipodi:type="arc"
           style="fill:#000000;stroke:#000000;stroke-width:2.83464575;stroke-linejoin:miter;stroke-miterlimit:4;stroke-opacity:1;stroke-dasharray:none;stroke-dashoffset:0"
           id="path3850"
           sodipodi:cx="380.76691"
           sodipodi:cy="497.17157"
           sodipodi:rx="5.5430794"
           sodipodi:ry="5.1166887"
           d="m 386.30999,497.17157 a 5.5430794,5.1166887 0 1 1 -11.08616,0 5.5430794,5.1166887 0 1 1 11.08616,0 z"
           transform="matrix(0.7573029,0,0,0.82041147,91.618366,328.99655)" />
      </g>
    </g>
    <path
       style="fill:#999999;stroke:#000000;stroke-width:1.77165353;stroke-linecap:butt;stroke-linejoin:miter;stroke-miterlimit:4;stroke-opacity:1;stroke-dasharray:none"
       d="m 90.394832,497.50163 18.761188,1.40406 c 5.39953,-0.31037 10.80057,-0.59464 16.20285,-0.85278 6.82043,-0.32591 13.64285,-0.61017 20.46675,-0.85278 l 11.93895,-2.55835 16.20284,-5.11669 16.20285,-7.67503 11.08616,-8.52781 6.82225,-6.82225 5.96947,-5.11669"
       id="path3781"
       inkscape:path-effect="#path-effect3783"
       inkscape:original-d="m 90.394832,497.50163 18.761188,1.40406 16.20285,-0.85278 20.46675,-0.85278 11.93895,-2.55835 16.20284,-5.11669 16.20285,-7.67503 11.08616,-8.52781 6.82225,-6.82225 5.96947,-5.11669"
       inkscape:connector-curvature="0"
       sodipodi:nodetypes="cccccccccc" />
    <path
       sodipodi:type="arc"
       style="fill:#000000;stroke:#000000;stroke-width:2.83464575;stroke-linejoin:miter;stroke-miterlimit:4;stroke-opacity:1;stroke-dasharray:none;stroke-dashoffset:0"
       id="path3763"
       sodipodi:cx="122.80053"
       sodipodi:cy="118.11023"
       sodipodi:rx="4.2639074"
       sodipodi:ry="3.8375165"
       d="m 127.06444,118.11023 a 4.2639074,3.8375165 0 1 1 -8.52782,0 4.2639074,3.8375165 0 1 1 8.52782,0 z"
       transform="matrix(0.92307324,0,0,1.025637,15.842498,338.11314)" />
  </g>
</svg>
