<?xml version="1.0" encoding="UTF-8" standalone="no"?>
<!-- Created with Inkscape (http://www.inkscape.org/) -->

<svg
   xmlns:dc="http://purl.org/dc/elements/1.1/"
   xmlns:cc="http://creativecommons.org/ns#"
   xmlns:rdf="http://www.w3.org/1999/02/22-rdf-syntax-ns#"
   xmlns:svg="http://www.w3.org/2000/svg"
   xmlns="http://www.w3.org/2000/svg"
   xmlns:sodipodi="http://sodipodi.sourceforge.net/DTD/sodipodi-0.dtd"
   xmlns:inkscape="http://www.inkscape.org/namespaces/inkscape"
   width="300"
   height="255"
   id="svg2"
   version="1.1"
   inkscape:version="0.48.4 r9939"
   sodipodi:docname="volume_integracao_v.svg"
   inkscape:export-filename="C:\Users\Vanderlei\Copy\ON\Minhas_Disciplinas\Metodos_Potenciais\Exercicios\volume_integracao_v.png"
   inkscape:export-xdpi="600"
   inkscape:export-ydpi="600">
  <defs
     id="defs4">
    <inkscape:path-effect
       effect="spiro"
       id="path-effect4562"
       is_visible="true" />
    <inkscape:path-effect
       effect="spiro"
       id="path-effect4558"
       is_visible="true" />
    <inkscape:path-effect
       effect="spiro"
       id="path-effect7845"
       is_visible="true" />
    <inkscape:path-effect
       effect="spiro"
       id="path-effect7841"
       is_visible="true" />
    <inkscape:path-effect
       effect="spiro"
       id="path-effect7774"
       is_visible="true" />
    <inkscape:path-effect
       effect="spiro"
       id="path-effect7746"
       is_visible="true" />
    <inkscape:path-effect
       effect="spiro"
       id="path-effect7742"
       is_visible="true" />
    <inkscape:path-effect
       effect="spiro"
       id="path-effect7738"
       is_visible="true" />
    <inkscape:path-effect
       effect="spiro"
       id="path-effect7199"
       is_visible="true" />
    <inkscape:path-effect
       effect="spiro"
       id="path-effect7195"
       is_visible="true" />
    <inkscape:path-effect
       effect="spiro"
       id="path-effect7191"
       is_visible="true" />
    <inkscape:path-effect
       effect="spiro"
       id="path-effect7187"
       is_visible="true" />
    <marker
       inkscape:stockid="EmptyTriangleInM"
       orient="auto"
       refY="0"
       refX="0"
       id="EmptyTriangleInM"
       style="overflow:visible">
      <path
         id="path4011"
         d="m 5.77,0 -8.65,5 0,-10 8.65,5 z"
         style="fill:#ffffff;fill-rule:evenodd;stroke:#000000;stroke-width:1pt;marker-start:none"
         transform="matrix(-0.4,0,0,-0.4,1.8,0)"
         inkscape:connector-curvature="0" />
    </marker>
    <marker
       inkscape:stockid="Arrow1Mstart"
       orient="auto"
       refY="0"
       refX="0"
       id="Arrow1Mstart"
       style="overflow:visible">
      <path
         id="path3862"
         d="M 0,0 5,-5 -12.5,0 5,5 0,0 z"
         style="fill-rule:evenodd;stroke:#000000;stroke-width:1pt;marker-start:none"
         transform="matrix(0.4,0,0,0.4,4,0)"
         inkscape:connector-curvature="0" />
    </marker>
    <marker
       inkscape:stockid="Arrow2Lstart"
       orient="auto"
       refY="0"
       refX="0"
       id="Arrow2Lstart"
       style="overflow:visible">
      <path
         id="path3874"
         style="font-size:12px;fill-rule:evenodd;stroke-width:0.625;stroke-linejoin:round"
         d="M 8.7185878,4.0337352 -2.2072895,0.01601326 8.7185884,-4.0017078 c -1.7454984,2.3720609 -1.7354408,5.6174519 -6e-7,8.035443 z"
         transform="matrix(1.1,0,0,1.1,1.1,0)"
         inkscape:connector-curvature="0" />
    </marker>
    <marker
       inkscape:stockid="Arrow2Sstart"
       orient="auto"
       refY="0"
       refX="0"
       id="Arrow2Sstart"
       style="overflow:visible">
      <path
         id="path3886"
         style="font-size:12px;fill-rule:evenodd;stroke-width:0.625;stroke-linejoin:round"
         d="M 8.7185878,4.0337352 -2.2072895,0.01601326 8.7185884,-4.0017078 c -1.7454984,2.3720609 -1.7354408,5.6174519 -6e-7,8.035443 z"
         transform="matrix(0.3,0,0,0.3,-0.69,0)"
         inkscape:connector-curvature="0" />
    </marker>
    <inkscape:path-effect
       effect="spiro"
       id="path-effect5473"
       is_visible="true" />
    <marker
       inkscape:stockid="Arrow2Mstart"
       orient="auto"
       refY="0"
       refX="0"
       id="Arrow2Mstart"
       style="overflow:visible">
      <path
         id="path3880"
         style="font-size:12px;fill-rule:evenodd;stroke-width:0.625;stroke-linejoin:round"
         d="M 8.7185878,4.0337352 -2.2072895,0.01601326 8.7185884,-4.0017078 c -1.7454984,2.3720609 -1.7354408,5.6174519 -6e-7,8.035443 z"
         transform="scale(0.6,0.6)"
         inkscape:connector-curvature="0" />
    </marker>
    <marker
       inkscape:stockid="Arrow2Mend"
       orient="auto"
       refY="0"
       refX="0"
       id="Arrow2Mend"
       style="overflow:visible">
      <path
         id="path3883"
         style="font-size:12px;fill-rule:evenodd;stroke-width:0.625;stroke-linejoin:round"
         d="M 8.7185878,4.0337352 -2.2072895,0.01601326 8.7185884,-4.0017078 c -1.7454984,2.3720609 -1.7354408,5.6174519 -6e-7,8.035443 z"
         transform="scale(-0.6,-0.6)"
         inkscape:connector-curvature="0" />
    </marker>
    <inkscape:path-effect
       effect="spiro"
       id="path-effect3817"
       is_visible="true" />
    <inkscape:path-effect
       effect="spiro"
       id="path-effect3792"
       is_visible="true" />
    <inkscape:path-effect
       effect="spiro"
       id="path-effect3788"
       is_visible="true" />
    <inkscape:path-effect
       effect="spiro"
       id="path-effect3784"
       is_visible="true" />
    <inkscape:path-effect
       effect="spiro"
       id="path-effect2991"
       is_visible="true" />
    <inkscape:path-effect
       effect="spiro"
       id="path-effect2987"
       is_visible="true" />
    <inkscape:path-effect
       effect="spiro"
       id="path-effect2987-1"
       is_visible="true" />
    <inkscape:path-effect
       effect="spiro"
       id="path-effect3792-4"
       is_visible="true" />
    <inkscape:path-effect
       effect="spiro"
       id="path-effect3784-9"
       is_visible="true" />
    <inkscape:path-effect
       effect="spiro"
       id="path-effect3792-4-4"
       is_visible="true" />
    <marker
       inkscape:stockid="Arrow2Mstart"
       orient="auto"
       refY="0"
       refX="0"
       id="Arrow2Mstart-7"
       style="overflow:visible">
      <path
         inkscape:connector-curvature="0"
         id="path3880-6"
         style="font-size:12px;fill-rule:evenodd;stroke-width:0.625;stroke-linejoin:round"
         d="M 8.7185878,4.0337352 -2.2072895,0.01601326 8.7185884,-4.0017078 c -1.7454984,2.3720609 -1.7354408,5.6174519 -6e-7,8.035443 z"
         transform="scale(0.6,0.6)" />
    </marker>
    <marker
       inkscape:stockid="Arrow2Mend"
       orient="auto"
       refY="0"
       refX="0"
       id="Arrow2Mend-1"
       style="overflow:visible">
      <path
         inkscape:connector-curvature="0"
         id="path3883-8"
         style="font-size:12px;fill-rule:evenodd;stroke-width:0.625;stroke-linejoin:round"
         d="M 8.7185878,4.0337352 -2.2072895,0.01601326 8.7185884,-4.0017078 c -1.7454984,2.3720609 -1.7354408,5.6174519 -6e-7,8.035443 z"
         transform="scale(-0.6,-0.6)" />
    </marker>
    <inkscape:path-effect
       effect="spiro"
       id="path-effect3784-92"
       is_visible="true" />
    <marker
       inkscape:stockid="Arrow2Mend"
       orient="auto"
       refY="0"
       refX="0"
       id="marker7291"
       style="overflow:visible">
      <path
         inkscape:connector-curvature="0"
         id="path7293"
         style="font-size:12px;fill-rule:evenodd;stroke-width:0.625;stroke-linejoin:round"
         d="M 8.7185878,4.0337352 -2.2072895,0.01601326 8.7185884,-4.0017078 c -1.7454984,2.3720609 -1.7354408,5.6174519 -6e-7,8.035443 z"
         transform="scale(-0.6,-0.6)" />
    </marker>
    <inkscape:path-effect
       effect="spiro"
       id="path-effect3792-4-7"
       is_visible="true" />
    <marker
       inkscape:stockid="Arrow2Mstart"
       orient="auto"
       refY="0"
       refX="0"
       id="Arrow2Mstart-1"
       style="overflow:visible">
      <path
         inkscape:connector-curvature="0"
         id="path3880-7"
         style="font-size:12px;fill-rule:evenodd;stroke-width:0.625;stroke-linejoin:round"
         d="M 8.7185878,4.0337352 -2.2072895,0.01601326 8.7185884,-4.0017078 c -1.7454984,2.3720609 -1.7354408,5.6174519 -6e-7,8.035443 z"
         transform="scale(0.6,0.6)" />
    </marker>
    <marker
       inkscape:stockid="Arrow2Mend"
       orient="auto"
       refY="0"
       refX="0"
       id="Arrow2Mend-4"
       style="overflow:visible">
      <path
         inkscape:connector-curvature="0"
         id="path3883-0"
         style="font-size:12px;fill-rule:evenodd;stroke-width:0.625;stroke-linejoin:round"
         d="M 8.7185878,4.0337352 -2.2072895,0.01601326 8.7185884,-4.0017078 c -1.7454984,2.3720609 -1.7354408,5.6174519 -6e-7,8.035443 z"
         transform="scale(-0.6,-0.6)" />
    </marker>
    <inkscape:path-effect
       effect="spiro"
       id="path-effect3784-94"
       is_visible="true" />
    <marker
       inkscape:stockid="Arrow2Mend"
       orient="auto"
       refY="0"
       refX="0"
       id="marker3091"
       style="overflow:visible">
      <path
         inkscape:connector-curvature="0"
         id="path3093"
         style="font-size:12px;fill-rule:evenodd;stroke-width:0.625;stroke-linejoin:round"
         d="M 8.7185878,4.0337352 -2.2072895,0.01601326 8.7185884,-4.0017078 c -1.7454984,2.3720609 -1.7354408,5.6174519 -6e-7,8.035443 z"
         transform="scale(-0.6,-0.6)" />
    </marker>
    <inkscape:path-effect
       effect="spiro"
       id="path-effect3792-4-8"
       is_visible="true" />
    <filter
       id="filter3185"
       x="-0.25"
       width="1.5"
       y="-0.25"
       height="1.5"
       inkscape:menu="Non realistic 3D shaders"
       inkscape:menu-tooltip="Non realistic frosted glass imitation"
       inkscape:label="Frosted glass"
       color-interpolation-filters="sRGB">
      <feGaussianBlur
         id="feGaussianBlur3187"
         result="result8"
         stdDeviation="7" />
      <feComposite
         id="feComposite3189"
         in2="result8"
         in="result8"
         operator="xor"
         result="result6" />
      <feDisplacementMap
         id="feDisplacementMap3191"
         in2="result6"
         result="result4"
         scale="75"
         yChannelSelector="A"
         xChannelSelector="A"
         in="result6" />
      <feComposite
         id="feComposite3193"
         in2="result4"
         k1="2"
         in="SourceGraphic"
         operator="arithmetic"
         result="result2"
         k2="0"
         k3="0"
         k4="0" />
      <feComposite
         id="feComposite3195"
         in2="result2"
         operator="in"
         in="result6"
         result="fbSourceGraphic" />
    </filter>
    <filter
       id="filter3245"
       inkscape:label="Bubbly Bumps"
       inkscape:menu-tooltip="Flexible bubbles effect with some displacement"
       inkscape:menu="Bumps"
       height="1.5"
       y="-0.25"
       width="1.5"
       x="-0.25"
       color-interpolation-filters="sRGB">
      <feGaussianBlur
         id="feGaussianBlur3247"
         stdDeviation="7"
         result="result8" />
      <feComposite
         id="feComposite3249"
         in2="result8"
         result="result6"
         operator="xor"
         in="result8" />
      <feDisplacementMap
         id="feDisplacementMap3251"
         in2="result6"
         xChannelSelector="A"
         yChannelSelector="A"
         scale="75"
         result="result4"
         in="result8" />
      <feComposite
         id="feComposite3253"
         in2="result4"
         result="result2"
         operator="arithmetic"
         in="SourceGraphic"
         k1="1"
         k2="0"
         k3="0"
         k4="0" />
      <feComposite
         id="feComposite3255"
         in2="result2"
         result="fbSourceGraphic"
         in="result6"
         operator="in" />
      <feColorMatrix
         result="fbSourceGraphicAlpha"
         in="fbSourceGraphic"
         values="0 0 0 -1 0 0 0 0 -1 0 0 0 0 -1 0 0 0 0 1 0"
         id="feColorMatrix3257" />
      <feGaussianBlur
         id="feGaussianBlur3259"
         result="result0"
         in="fbSourceGraphic"
         stdDeviation="0.5" />
      <feTurbulence
         id="feTurbulence3261"
         baseFrequency="0.2"
         seed="300"
         numOctaves="10"
         result="result1"
         type="fractalNoise" />
      <feGaussianBlur
         id="feGaussianBlur3263"
         stdDeviation="0.5"
         result="result8" />
      <feDisplacementMap
         id="feDisplacementMap3265"
         in2="result8"
         result="result7"
         scale="5"
         in="result0"
         xChannelSelector="R"
         yChannelSelector="A" />
      <feComposite
         id="feComposite3267"
         in2="result1"
         result="result2"
         operator="in"
         in="result7" />
      <feComposite
         id="feComposite3269"
         in2="result2"
         k3="3"
         in="result0"
         operator="arithmetic"
         result="result9"
         k1="0"
         k2="0"
         k4="0" />
      <feBlend
         id="feBlend3271"
         in2="result2"
         result="fbSourceGraphic"
         mode="multiply" />
      <feColorMatrix
         id="feColorMatrix3273"
         values="1 0 0 -1 0 1 0 1 -1 0 1 0 0 -1 0 -1.8 -0.5 0 5.7 -3.5 "
         in="fbSourceGraphic"
         result="fbSourceGraphicAlpha" />
      <feGaussianBlur
         id="feGaussianBlur3275"
         stdDeviation="0.5"
         in="fbSourceGraphicAlpha"
         result="result0" />
      <feSpecularLighting
         id="feSpecularLighting3277"
         result="result6"
         surfaceScale="5"
         specularExponent="3">
        <feDistantLight
           id="feDistantLight3279"
           azimuth="225"
           elevation="10" />
      </feSpecularLighting>
      <feComposite
         id="feComposite3281"
         in2="fbSourceGraphicAlpha"
         in="result6"
         result="result2"
         operator="in" />
      <feComposite
         id="feComposite3283"
         in2="result2"
         in="fbSourceGraphic"
         result="result4"
         operator="arithmetic"
         k2="1"
         k3="0.7"
         k1="0"
         k4="0" />
    </filter>
    <filter
       id="filter3497"
       x="-0.25"
       width="1.5"
       y="-0.25"
       height="1.5"
       inkscape:menu="Non realistic 3D shaders"
       inkscape:menu-tooltip="Non realistic frosted glass imitation"
       inkscape:label="Frosted glass"
       color-interpolation-filters="sRGB">
      <feGaussianBlur
         id="feGaussianBlur3499"
         result="result8"
         stdDeviation="7" />
      <feComposite
         id="feComposite3501"
         in2="result8"
         in="result8"
         operator="xor"
         result="result6" />
      <feDisplacementMap
         id="feDisplacementMap3503"
         in2="result6"
         result="result4"
         scale="75"
         yChannelSelector="A"
         xChannelSelector="A"
         in="result6" />
      <feComposite
         id="feComposite3505"
         in2="result4"
         k1="2"
         in="SourceGraphic"
         operator="arithmetic"
         result="result2"
         k2="0"
         k3="0"
         k4="0" />
      <feComposite
         id="feComposite3507"
         in2="result2"
         operator="in"
         in="result6"
         result="fbSourceGraphic" />
    </filter>
    <marker
       inkscape:stockid="Arrow2Mstart"
       orient="auto"
       refY="0"
       refX="0"
       id="Arrow2Mstart-17"
       style="overflow:visible">
      <path
         id="path3880-4"
         style="font-size:12px;fill-rule:evenodd;stroke-width:0.625;stroke-linejoin:round"
         d="M 8.7185878,4.0337352 -2.2072895,0.01601326 8.7185884,-4.0017078 c -1.7454984,2.3720609 -1.7354408,5.6174519 -6e-7,8.035443 z"
         transform="scale(0.6,0.6)"
         inkscape:connector-curvature="0" />
    </marker>
    <marker
       inkscape:stockid="Arrow2Mend"
       orient="auto"
       refY="0"
       refX="0"
       id="Arrow2Mend-0"
       style="overflow:visible">
      <path
         id="path3883-9"
         style="font-size:12px;fill-rule:evenodd;stroke-width:0.625;stroke-linejoin:round"
         d="M 8.7185878,4.0337352 -2.2072895,0.01601326 8.7185884,-4.0017078 c -1.7454984,2.3720609 -1.7354408,5.6174519 -6e-7,8.035443 z"
         transform="scale(-0.6,-0.6)"
         inkscape:connector-curvature="0" />
    </marker>
    <inkscape:path-effect
       effect="spiro"
       id="path-effect3784-4"
       is_visible="true" />
    <inkscape:path-effect
       effect="spiro"
       id="path-effect5473-1"
       is_visible="true" />
    <inkscape:path-effect
       effect="spiro"
       id="path-effect7845-2"
       is_visible="true" />
    <filter
       id="filter3497-7"
       x="-0.25"
       width="1.5"
       y="-0.25"
       height="1.5"
       inkscape:menu="Non realistic 3D shaders"
       inkscape:menu-tooltip="Non realistic frosted glass imitation"
       inkscape:label="Frosted glass"
       color-interpolation-filters="sRGB">
      <feGaussianBlur
         id="feGaussianBlur3499-9"
         result="result8"
         stdDeviation="7" />
      <feComposite
         id="feComposite3501-5"
         in2="result8"
         in="result8"
         operator="xor"
         result="result6" />
      <feDisplacementMap
         id="feDisplacementMap3503-4"
         in2="result6"
         result="result4"
         scale="75"
         yChannelSelector="A"
         xChannelSelector="A"
         in="result6" />
      <feComposite
         id="feComposite3505-3"
         in2="result4"
         k1="2"
         in="SourceGraphic"
         operator="arithmetic"
         result="result2"
         k2="0"
         k3="0"
         k4="0" />
      <feComposite
         id="feComposite3507-1"
         in2="result2"
         operator="in"
         in="result6"
         result="fbSourceGraphic" />
    </filter>
  </defs>
  <sodipodi:namedview
     id="base"
     pagecolor="#ffffff"
     bordercolor="#666666"
     borderopacity="1.0"
     inkscape:pageopacity="1"
     inkscape:pageshadow="2"
     inkscape:zoom="2.0352941"
     inkscape:cx="150"
     inkscape:cy="127.5"
     inkscape:document-units="pc"
     inkscape:current-layer="layer1"
     showgrid="false"
     units="pc"
     inkscape:showpageshadow="false"
     inkscape:window-width="1366"
     inkscape:window-height="706"
     inkscape:window-x="-8"
     inkscape:window-y="-8"
     inkscape:window-maximized="1" />
  <metadata
     id="metadata7">
    <rdf:RDF>
      <cc:Work
         rdf:about="">
        <dc:format>image/svg+xml</dc:format>
        <dc:type
           rdf:resource="http://purl.org/dc/dcmitype/StillImage" />
        <dc:title></dc:title>
      </cc:Work>
    </rdf:RDF>
  </metadata>
  <g
     inkscape:label="Camada 1"
     inkscape:groupmode="layer"
     id="layer1"
     transform="translate(0,-797.36162)">
    <text
       sodipodi:linespacing="125%"
       id="text5396"
       y="952.55505"
       x="321.47003"
       style="font-size:32px;font-style:normal;font-variant:normal;font-weight:normal;font-stretch:normal;line-height:125%;letter-spacing:0px;word-spacing:0px;fill:#000000;fill-opacity:1;stroke:none;font-family:Arial;-inkscape-font-specification:Sans"
       xml:space="preserve"><tspan
         style="font-family:Times New Roman;-inkscape-font-specification:Times New Roman"
         y="952.55505"
         x="321.47003"
         id="tspan5398"
         sodipodi:role="line" /></text>
    <path
       style="fill:#808080;stroke:none;filter:url(#filter3497)"
       d="m 68.738545,923.19676 c 0.3976,-0.68649 0.988399,-1.24764 1.648785,-1.68724 0.660385,-0.4396 1.390905,-0.76343 2.132317,-1.04568 1.482826,-0.5645 3.052728,-0.98544 4.342689,-1.90925 0.359684,-0.25759 0.693603,-0.5519 1.070136,-0.78417 0.376532,-0.23227 0.809317,-0.40261 1.250947,-0.37637 0.300573,0.0179 0.588228,0.12523 0.885375,0.17388 0.148573,0.0243 0.300948,0.0338 0.449573,0.01 0.148626,-0.024 0.293858,-0.0831 0.405865,-0.18372 0.103673,-0.0931 0.174239,-0.21642 0.257319,-0.32829 0.04154,-0.0559 0.08678,-0.10963 0.140117,-0.15446 0.05334,-0.0448 0.115222,-0.0807 0.182835,-0.0975 0.09458,-0.0235 0.193894,-0.009 0.29044,0.004 0.09655,0.0133 0.19687,0.0248 0.28983,-0.004 0.06626,-0.0209 0.124965,-0.0616 0.174593,-0.11021 0.04963,-0.0486 0.09082,-0.10506 0.130161,-0.16231 0.07868,-0.1145 0.15549,-0.23779 0.275517,-0.30775 0.08467,-0.0494 0.18438,-0.0677 0.282364,-0.0697 0.09798,-0.002 0.195583,0.0113 0.292612,0.025 0.194059,0.0276 0.389558,0.0447 0.585566,0.0447 l 1.160541,0 6.382979,0 2.321083,0 c 0.387178,0 0.776811,0.0516 1.160542,0 0.304182,-0.0409 0.589637,-0.16618 0.870406,-0.29014 0.280769,-0.12395 0.566224,-0.24927 0.870406,-0.29013 0.383731,-0.0516 0.773364,0 1.160542,0 l 2.321085,0 6.96325,0 16.24758,0 12.76596,0 3.48162,0 1.16054,0 c 0.0971,0 0.19421,-0.005 0.29103,-0.013 0.0968,-0.008 0.19662,-0.0163 0.28925,0.013 0.0662,0.0209 0.12517,0.0609 0.17547,0.10874 0.0503,0.0478 0.0925,0.10348 0.13248,0.16019 0.08,0.11343 0.15588,0.23577 0.27232,0.31134 0.0828,0.0537 0.18138,0.0799 0.27986,0.0868 0.0985,0.007 0.19738,-0.005 0.29462,-0.0218 0.19449,-0.0341 0.39023,-0.0902 0.58606,-0.065 0.21636,0.0279 0.4069,0.15174 0.58595,0.27636 0.17905,0.12462 0.36169,0.25632 0.57459,0.30391 0.18954,0.0424 0.38657,0.0143 0.58027,0 0.31704,-0.0234 0.63996,-0.008 0.94521,0.0804 0.30524,0.0888 0.59279,0.25511 0.7956,0.49991 0.0889,0.10735 0.16059,0.22808 0.24874,0.33608 0.0881,0.10799 0.19758,0.20557 0.33153,0.24419 0.0934,0.0269 0.19266,0.0235 0.28947,0.0149 0.0968,-0.009 0.19388,-0.0222 0.2908,-0.0149 0.17901,0.0134 0.34673,0.0979 0.48777,0.20898 0.14104,0.11106 0.25883,0.24829 0.37656,0.38382 0.11772,0.13552 0.23751,0.27134 0.38145,0.37862 0.14394,0.10727 0.31557,0.18523 0.49504,0.18912 0.0977,0.002 0.19443,-0.0176 0.29163,-0.0279 0.0972,-0.0103 0.19881,-0.0107 0.28864,0.0279 0.0639,0.0274 0.11847,0.0732 0.16457,0.12524 0.0461,0.052 0.0844,0.11035 0.12281,0.16827 0.0384,0.0579 0.0774,0.1159 0.12455,0.16691 0.0472,0.051 0.10337,0.0952 0.16834,0.11985 0.0982,0.0373 0.2086,0.0272 0.30949,-0.002 0.10089,-0.029 0.19555,-0.0761 0.29373,-0.11324 0.0982,-0.0372 0.20317,-0.0648 0.30743,-0.0525 0.0521,0.006 0.10342,0.0225 0.14767,0.0508 0.0442,0.0283 0.0812,0.0687 0.10222,0.11678 0.0197,0.0451 0.025,0.0954 0.0224,0.14452 -0.003,0.0491 -0.0127,0.0975 -0.0228,0.14566 -0.0101,0.0481 -0.0202,0.0965 -0.0226,0.14568 -0.002,0.0491 0.003,0.0994 0.023,0.14442 0.0213,0.048 0.0585,0.0882 0.1029,0.11607 0.0444,0.0279 0.0958,0.0439 0.14797,0.0497 0.1043,0.0115 0.20901,-0.0168 0.307,-0.0544 0.098,-0.0376 0.19259,-0.0847 0.29357,-0.11319 0.10099,-0.0285 0.21175,-0.0373 0.3091,0.002 0.0646,0.026 0.11973,0.0717 0.16577,0.12398 0.046,0.0522 0.0837,0.11117 0.12156,0.16963 0.0378,0.0585 0.0762,0.11703 0.12336,0.16826 0.0472,0.0512 0.10391,0.0952 0.16958,0.1184 0.0917,0.0324 0.1922,0.0232 0.28904,0.0144 0.0968,-0.009 0.19398,-0.0144 0.29123,-0.0144 l 0.58027,0 c 0.0991,0 0.19767,-0.0116 0.29498,-0.0302 0.0487,-0.009 0.0978,-0.0182 0.14736,-0.0168 0.0495,0.001 0.10046,0.0146 0.13793,0.047 0.0383,0.0331 0.0586,0.0835 0.0634,0.13385 0.005,0.0504 -0.005,0.10107 -0.0177,0.14992 -0.0132,0.0489 -0.0302,0.0967 -0.0412,0.14605 -0.011,0.0494 -0.0159,0.10116 -0.004,0.15045 0.0122,0.0526 0.0429,0.10026 0.0836,0.13581 0.0407,0.0356 0.091,0.0593 0.14361,0.0716 0.10522,0.0246 0.21624,0.004 0.31809,-0.0323 0.10184,-0.0361 0.19774,-0.0872 0.2986,-0.12597 0.10085,-0.0388 0.20987,-0.0653 0.3167,-0.0491 0.0716,0.0109 0.13973,0.0408 0.19912,0.0822 0.0594,0.0415 0.1103,0.0944 0.15361,0.15244 0.0866,0.11615 0.14261,0.25166 0.20149,0.38405 0.0589,0.13239 0.12307,0.26546 0.22221,0.37113 0.0496,0.0528 0.1077,0.0982 0.17322,0.12914 0.0655,0.0309 0.13865,0.047 0.21089,0.0415 0.10358,-0.008 0.19882,-0.0583 0.30017,-0.081 0.0507,-0.0114 0.10384,-0.0157 0.15445,-0.004 0.0506,0.0117 0.0985,0.0408 0.12565,0.085 0.0265,0.0433 0.0311,0.097 0.0238,0.14727 -0.007,0.0502 -0.0255,0.0981 -0.0421,0.14604 -0.0166,0.048 -0.0318,0.0973 -0.0326,0.14802 -4.3e-4,0.0254 0.003,0.0509 0.0111,0.0749 0.008,0.024 0.0216,0.0464 0.0399,0.064 0.0183,0.0176 0.0412,0.0301 0.0655,0.0375 0.0243,0.007 0.05,0.01 0.0753,0.009 0.0507,-0.002 0.0996,-0.0188 0.14748,-0.0359 0.0478,-0.0171 0.0959,-0.0351 0.14636,-0.0411 0.0252,-0.003 0.0509,-0.003 0.0759,0.002 0.0249,0.005 0.0491,0.0143 0.0697,0.0292 0.0207,0.015 0.0375,0.0351 0.0495,0.0577 0.012,0.0225 0.0194,0.0474 0.0229,0.0727 0.007,0.0506 -0.001,0.1022 -0.0147,0.15154 -0.0133,0.0493 -0.0315,0.0973 -0.0445,0.14668 -0.013,0.0494 -0.0209,0.10114 -0.0131,0.15164 0.0106,0.0689 0.0497,0.13066 0.0978,0.18118 0.048,0.0505 0.10494,0.0916 0.16178,0.13193 0.11367,0.0807 0.22215,0.16859 0.32072,0.26716 l 1.16054,1.16054 1.16054,1.16054 c 0.19396,0.19396 0.38007,0.39556 0.56106,0.60167 0.18099,0.20611 0.36499,0.41656 0.59948,0.55888 0.18625,0.11304 0.39731,0.17675 0.60141,0.25298 0.20409,0.0762 0.4087,0.1697 0.55914,0.32729 0.0964,0.10094 0.16619,0.2238 0.25146,0.33428 0.0426,0.0552 0.0895,0.10769 0.14398,0.15125 0.0545,0.0436 0.11706,0.0781 0.18483,0.0947 0.0945,0.0232 0.19366,0.0107 0.29022,-0.001 0.0966,-0.0121 0.19599,-0.0236 0.29005,0.001 0.10934,0.0291 0.20179,0.10615 0.26579,0.19944 0.064,0.0933 0.10187,0.20213 0.12855,0.31207 0.0267,0.10995 0.0429,0.22218 0.0677,0.33255 0.0248,0.11037 0.0589,0.22011 0.11821,0.31648 0.11601,0.18864 0.31784,0.30893 0.52528,0.38646 0.20744,0.0775 0.42665,0.11948 0.63526,0.19381 0.65962,0.23502 1.15992,0.76952 1.74081,1.16054 0.58052,0.39077 1.26117,0.65098 1.74081,1.16054 0.18986,0.20171 0.34133,0.43598 0.51712,0.65006 0.17579,0.21409 0.38408,0.41317 0.64343,0.51048 0.21471,0.0806 0.45014,0.0861 0.67094,0.14806 0.11041,0.031 0.21821,0.0768 0.30767,0.14855 0.0894,0.0717 0.15963,0.1712 0.18193,0.28367 0.0189,0.0956 0.003,0.19416 -0.01,0.29078 -0.0127,0.0966 -0.0219,0.19729 0.01,0.28949 0.0224,0.0653 0.0641,0.12264 0.11205,0.17231 0.048,0.0497 0.1024,0.0926 0.15682,0.13514 0.10886,0.085 0.21373,0.17515 0.3114,0.27282 l 0.58027,0.58027 c 0.19343,0.19343 0.39072,0.38304 0.58027,0.58027 0.15435,0.1606 0.30291,0.32944 0.41294,0.52311 0.11002,0.19367 0.18018,0.41506 0.16733,0.63743 -0.006,0.0979 -0.0272,0.19426 -0.0365,0.2919 -0.009,0.0977 -0.006,0.19974 0.0365,0.28837 0.0298,0.0629 0.0776,0.11594 0.13094,0.16069 0.0534,0.0448 0.11253,0.0819 0.17082,0.12002 0.0583,0.0381 0.11623,0.0775 0.16619,0.12605 0.0499,0.0485 0.0919,0.10692 0.11232,0.17351 0.0286,0.0934 0.0128,0.19385 -0.002,0.29033 -0.0152,0.0965 -0.0293,0.19756 0.002,0.28994 0.0227,0.066 0.0675,0.12271 0.11969,0.16914 0.0522,0.0464 0.11179,0.0836 0.17105,0.12051 0.0593,0.037 0.11883,0.0742 0.17082,0.12083 0.052,0.0466 0.0965,0.10357 0.11871,0.16979 0.031,0.0927 0.0159,0.19364 3.9e-4,0.2901 -0.0156,0.0965 -0.0309,0.19735 -3.9e-4,0.29017 0.0218,0.0663 0.0659,0.12352 0.11753,0.17048 0.0516,0.0469 0.11093,0.0846 0.17003,0.1217 0.0591,0.0371 0.11865,0.0742 0.17103,0.12037 0.0524,0.0461 0.0978,0.10215 0.12168,0.16772 0.0333,0.0914 0.024,0.19213 0.0148,0.28898 -0.009,0.0969 -0.0148,0.19402 -0.0148,0.2913 0,0.19342 0,0.38685 0,0.58027 0,0.38685 0,0.77369 0,1.16054 0,0.19363 -0.005,0.38721 -0.0125,0.58068 -0.008,0.19348 -0.016,0.38835 0.0125,0.57986 0.0453,0.30418 0.18388,0.58515 0.31341,0.86409 0.12952,0.27893 0.25369,0.56946 0.26686,0.87672 0.0127,0.29733 -0.0793,0.58774 -0.12805,0.88132 -0.0244,0.14679 -0.0379,0.29652 -0.022,0.44446 0.0159,0.14795 0.0626,0.29469 0.15009,0.41503 0.0809,0.11123 0.19262,0.19537 0.29998,0.28134 0.10736,0.086 0.21434,0.17825 0.2803,0.29894 0.0717,0.13111 0.0889,0.28636 0.076,0.43522 -0.0129,0.14886 -0.0542,0.29357 -0.0938,0.43764 -0.0396,0.14407 -0.078,0.28991 -0.0847,0.43917 -0.007,0.14927 0.0203,0.30403 0.10257,0.42878 0.076,0.11523 0.19224,0.19643 0.30257,0.27935 0.11033,0.0829 0.22111,0.17504 0.2777,0.30092 0.0403,0.0897 0.05,0.19062 0.0442,0.28879 -0.006,0.0982 -0.0264,0.19476 -0.0442,0.29148 -0.0705,0.38352 -0.0974,0.78294 0,1.16054 0.1087,0.42167 0.36362,0.78793 0.60613,1.14961 0.24251,0.36168 0.48254,0.74199 0.55441,1.17147 0.0321,0.19158 0.0294,0.38826 0,0.58027 -0.0301,0.1966 -0.0878,0.38863 -0.10897,0.58638 -0.0106,0.0989 -0.0119,0.19924 0.004,0.2974 0.0159,0.0982 0.0495,0.19424 0.105,0.27677 0.0769,0.11436 0.19102,0.19723 0.30018,0.28132 0.10915,0.0841 0.21873,0.17558 0.28009,0.29895 0.0437,0.0879 0.0602,0.18744 0.0603,0.28561 8e-5,0.0982 -0.0156,0.19565 -0.0336,0.29217 -0.0179,0.0965 -0.0381,0.19286 -0.0471,0.29062 -0.009,0.0978 -0.006,0.1977 0.0204,0.29214 0.0382,0.13452 0.12426,0.25161 0.22678,0.34672 0.10253,0.0951 0.22161,0.17028 0.34064,0.24367 0.11903,0.0734 0.2394,0.14605 0.34562,0.237 0.10623,0.0909 0.19871,0.2021 0.2475,0.33315 0.0679,0.18237 0.0488,0.38415 0.0302,0.57786 -0.0187,0.19371 -0.0302,0.38808 -0.0302,0.58268 l 0,1.16054 0,4.64217 0,2.32108 c 0,0.19343 0.006,0.38694 0,0.58027 -0.0337,1.05616 -0.554,2.03608 -1.16054,2.90136 -0.40076,0.57171 -0.847,1.11699 -1.16054,1.74081 -0.46859,0.93229 -0.6236,2.00668 -1.16054,2.90135 -0.35958,0.59914 -0.88109,1.10038 -1.16055,1.74082 -0.24512,0.56173 -0.28985,1.20111 -0.58027,1.74081 -0.2603,0.48373 -0.69016,0.85002 -1.10793,1.2067 -0.41776,0.35668 -0.82472,0.72595 -1.21315,1.11438 l -3.48163,3.48163 c -0.1938,0.1938 -0.39402,0.38103 -0.59808,0.56399 -0.20406,0.18297 -0.41135,0.3679 -0.56246,0.59655 -0.23906,0.36172 -0.31868,0.81476 -0.58027,1.16054 -0.16523,0.21841 -0.39311,0.38034 -0.58027,0.58027 -0.094,0.10037 -0.17741,0.21007 -0.26871,0.31288 -0.0913,0.1028 -0.19186,0.19974 -0.31156,0.26739 -0.19494,0.11017 -0.42477,0.13481 -0.64045,0.19499 -0.10784,0.0301 -0.21415,0.07 -0.30716,0.1323 -0.093,0.0623 -0.17249,0.14858 -0.21293,0.25298 -0.0359,0.0926 -0.0397,0.19496 -0.0279,0.29354 0.0118,0.0986 0.0386,0.19463 0.0624,0.29101 0.0238,0.0964 0.0448,0.1944 0.0448,0.29368 -4e-5,0.0993 -0.0225,0.20087 -0.0793,0.28231 -0.0649,0.093 -0.16904,0.15239 -0.27723,0.18638 -0.10819,0.034 -0.22192,0.0454 -0.33423,0.0611 -0.1123,0.0158 -0.22581,0.0366 -0.32709,0.0877 -0.0506,0.0255 -0.0978,0.0585 -0.13671,0.0998 -0.0389,0.0413 -0.0694,0.0909 -0.0853,0.14537 -0.0274,0.0938 -0.0106,0.19403 0.005,0.29052 0.0154,0.0965 0.0288,0.19798 -0.005,0.28976 -0.0197,0.054 -0.0551,0.10169 -0.0986,0.13938 -0.0435,0.0377 -0.0948,0.0657 -0.14871,0.0857 -0.10785,0.04 -0.22443,0.0484 -0.33912,0.0572 -0.1147,0.009 -0.23137,0.0191 -0.33795,0.0624 -0.0533,0.0217 -0.10359,0.0516 -0.14526,0.0913 -0.0417,0.0396 -0.0745,0.0892 -0.0909,0.14436 -0.014,0.047 -0.0158,0.0969 -0.0118,0.1458 0.004,0.0489 0.0137,0.0971 0.0226,0.14532 0.009,0.0482 0.0168,0.0969 0.0171,0.14593 3.7e-4,0.049 -0.007,0.0988 -0.0279,0.14322 -0.0222,0.0474 -0.059,0.0873 -0.10284,0.11578 -0.0438,0.0285 -0.0944,0.046 -0.14613,0.0537 -0.10343,0.0155 -0.20901,-0.007 -0.30804,-0.0409 -0.099,-0.0336 -0.19423,-0.0782 -0.29434,-0.10843 -0.1001,-0.0303 -0.20785,-0.0459 -0.3092,-0.0201 -0.1099,0.028 -0.20387,0.10332 -0.26988,0.19552 -0.066,0.0922 -0.10622,0.20055 -0.13429,0.31041 -0.0562,0.21974 -0.0684,0.45503 -0.1761,0.65461 -0.10634,0.197 -0.29685,0.33805 -0.50266,0.42613 -0.20582,0.0881 -0.42835,0.1285 -0.6489,0.16693 -0.22054,0.0384 -0.44326,0.0761 -0.65114,0.1592 -0.20787,0.0831 -0.40269,0.21662 -0.51838,0.40828 -0.11543,0.19123 -0.14255,0.42076 -0.20206,0.63606 -0.0298,0.10765 -0.0686,0.21395 -0.12952,0.30756 -0.0609,0.0936 -0.14543,0.17434 -0.24869,0.21689 -0.0915,0.0377 -0.19349,0.0439 -0.29201,0.0342 -0.0985,-0.01 -0.19477,-0.0347 -0.29106,-0.0577 -0.0963,-0.023 -0.19384,-0.0441 -0.29282,-0.0458 -0.099,-0.002 -0.20043,0.0172 -0.28465,0.0692 -0.095,0.0587 -0.16156,0.15554 -0.20373,0.25895 -0.0422,0.10342 -0.0622,0.21426 -0.0825,0.32409 -0.0202,0.10984 -0.0411,0.22061 -0.0848,0.32339 -0.0437,0.10278 -0.11255,0.19831 -0.20926,0.25417 -0.0859,0.0496 -0.18822,0.0648 -0.28727,0.0599 -0.0991,-0.005 -0.19606,-0.029 -0.29218,-0.0534 -0.0961,-0.0244 -0.19275,-0.0495 -0.29167,-0.0567 -0.0989,-0.007 -0.20141,0.005 -0.28942,0.0502 -0.0987,0.0513 -0.17264,0.14216 -0.22163,0.24207 -0.049,0.0999 -0.0753,0.20925 -0.0982,0.31814 -0.0229,0.1089 -0.0429,0.21895 -0.0807,0.32363 -0.0377,0.1047 -0.0946,0.2051 -0.17979,0.2767 -0.0886,0.075 -0.202,0.1134 -0.31566,0.1352 -0.11365,0.022 -0.22972,0.028 -0.34404,0.046 -0.11432,0.018 -0.22928,0.049 -0.32488,0.114 -0.0478,0.033 -0.0902,0.074 -0.12153,0.1223 -0.0313,0.049 -0.0514,0.105 -0.0544,0.1628 -0.003,0.051 0.008,0.102 0.0216,0.1513 0.0139,0.049 0.0314,0.097 0.0434,0.1472 0.012,0.05 0.0185,0.1017 0.01,0.1521 -0.009,0.051 -0.0335,0.1 -0.0748,0.1297 -0.0406,0.03 -0.0934,0.039 -0.14352,0.035 -0.0502,-0 -0.0986,-0.019 -0.14651,-0.034 -0.0479,-0.015 -0.0963,-0.031 -0.14644,-0.035 -0.0501,-0 -0.10292,0 -0.1438,0.034 -0.0417,0.03 -0.0671,0.079 -0.0762,0.1291 -0.009,0.05 -0.003,0.1026 0.009,0.1524 0.0236,0.1 0.0704,0.1962 0.0674,0.2987 -0.002,0.058 -0.0198,0.1153 -0.0493,0.1654 -0.0295,0.05 -0.0702,0.093 -0.11666,0.1281 -0.093,0.07 -0.20704,0.1062 -0.32135,0.1275 -0.11432,0.021 -0.23078,0.029 -0.34557,0.047 -0.11479,0.019 -0.22991,0.049 -0.32762,0.1122 -0.11582,0.075 -0.19901,0.1892 -0.2826,0.2988 -0.0836,0.1096 -0.17425,0.2201 -0.29767,0.2815 -0.088,0.044 -0.18779,0.06 -0.28603,0.059 -0.0982,-8e-4 -0.1956,-0.018 -0.29206,-0.036 -0.0965,-0.019 -0.19282,-0.039 -0.29069,-0.048 -0.0979,-0.01 -0.19806,-0 -0.29176,0.025 -0.13418,0.042 -0.24794,0.1348 -0.33829,0.2427 -0.0903,0.1078 -0.15979,0.2312 -0.23014,0.353 -0.0704,0.1219 -0.14291,0.2439 -0.23827,0.3473 -0.0954,0.1034 -0.21626,0.1881 -0.35384,0.2175 -0.0948,0.02 -0.19296,0.014 -0.28972,0.01 -0.0968,-0.01 -0.19363,-0.01 -0.29055,-0.01 l -1.16055,0 c -0.0968,0 -0.19362,-0 -0.29036,-0.01 -0.0967,-0 -0.19424,-0.01 -0.28991,0.01 -0.21574,0.034 -0.40231,0.1637 -0.58027,0.2902 -0.17796,0.1264 -0.36453,0.2566 -0.58027,0.2901 -0.0957,0.015 -0.19317,0.011 -0.28991,0.01 -0.0967,-0 -0.19354,-0.01 -0.29036,-0.01 l -1.74081,0 -4.0619,0 -10.44487,0 -2.90135,0 c -0.58047,0 -1.16241,-0.049 -1.74082,0 -1.04828,0.089 -2.01263,0.5975 -2.90135,1.1605 -0.73527,0.4658 -1.46821,0.9869 -2.32108,1.1606 -0.76032,0.1548 -1.54537,0.018 -2.32109,0 -0.99499,-0.024 -2.00198,0.154 -2.90135,0.5802 -0.47649,0.2258 -0.91842,0.5185 -1.38929,0.7558 -0.47087,0.2373 -0.98502,0.4212 -1.51206,0.4048 -0.19391,-0.01 -0.39022,-0.039 -0.58028,0 -0.21365,0.044 -0.39789,0.1737 -0.57696,0.2982 -0.17906,0.1245 -0.36789,0.2498 -0.58358,0.2821 -0.0957,0.014 -0.19319,0.01 -0.28993,0.01 -0.0967,-0 -0.19353,-0.01 -0.29034,-0.01 l -1.16054,0 -4.64217,0 -3.48162,0 -1.160544,0 c -0.0971,0 -0.194132,0 -0.290937,0.012 -0.09681,0.01 -0.196309,0.016 -0.289333,-0.012 -0.06652,-0.02 -0.126571,-0.058 -0.178325,-0.1044 -0.05175,-0.046 -0.09568,-0.1006 -0.136736,-0.1566 -0.08212,-0.112 -0.155788,-0.2338 -0.26521,-0.3193 -0.129598,-0.1013 -0.297596,-0.1415 -0.461809,-0.1508 -0.164213,-0.01 -0.328601,0.01 -0.493042,0.013 -0.164441,0 -0.333401,-0.01 -0.482842,-0.078 -0.07472,-0.034 -0.143614,-0.083 -0.197565,-0.1446 -0.05395,-0.062 -0.09254,-0.1383 -0.105555,-0.2195 -0.01548,-0.097 0.0051,-0.1948 0.01928,-0.2916 0.0071,-0.048 0.01254,-0.097 0.01104,-0.1461 -0.0015,-0.049 -0.01016,-0.098 -0.03032,-0.1426 -0.02178,-0.048 -0.0567,-0.09 -0.09874,-0.122 -0.04204,-0.032 -0.09106,-0.054 -0.142214,-0.068 -0.102306,-0.026 -0.211121,-0.017 -0.313626,0.01 -0.205011,0.052 -0.395107,0.1655 -0.605957,0.1806 -0.178924,0.013 -0.357379,-0.048 -0.509371,-0.1435 -0.151992,-0.095 -0.280493,-0.2234 -0.401805,-0.3555 -0.121312,-0.1322 -0.237242,-0.2699 -0.370553,-0.3899 -0.13331,-0.12 -0.286424,-0.223 -0.459084,-0.2716 -0.187126,-0.053 -0.385933,-0.039 -0.579281,-0.019 -0.193348,0.02 -0.388883,0.047 -0.58126,0.019 -0.215459,-0.031 -0.415392,-0.1299 -0.60197,-0.2421 -0.186578,-0.1123 -0.364345,-0.2398 -0.558572,-0.3382 -0.546719,-0.277 -1.191536,-0.3083 -1.740812,-0.5802 -0.194911,-0.096 -0.37403,-0.2216 -0.560843,-0.3329 -0.186812,-0.1114 -0.385369,-0.2105 -0.599699,-0.2474 -0.191219,-0.033 -0.387089,-0.015 -0.580361,0 -0.193273,0.017 -0.389445,0.034 -0.58018,-0 -0.213619,-0.04 -0.409864,-0.1432 -0.5957,-0.2559 -0.185837,-0.1126 -0.366085,-0.2365 -0.564842,-0.3244 -0.281748,-0.1246 -0.590136,-0.1723 -0.891205,-0.2375 -0.301069,-0.065 -0.606741,-0.1533 -0.849607,-0.3428 -0.215913,-0.1685 -0.368374,-0.4067 -0.580271,-0.5802 -0.238737,-0.1955 -0.53975,-0.2981 -0.84002,-0.3692 -0.30027,-0.071 -0.607713,-0.1146 -0.900792,-0.2111 -0.411527,-0.1355 -0.781381,-0.3707 -1.160542,-0.5803 -0.540173,-0.2987 -1.124156,-0.5532 -1.740812,-0.5802 -0.193256,-0.01 -0.38683,0 -0.580271,0 l -1.740813,0 c -0.290626,0 -0.581156,0.01 -0.871408,0.024 -0.290251,0.015 -0.583887,0.031 -0.869404,-0.024 -0.347958,-0.066 -0.6689,-0.2374 -0.952994,-0.449 -0.284094,-0.2115 -0.535207,-0.4633 -0.787818,-0.7116 -0.251998,-0.2477 -0.507625,-0.49356 -0.793199,-0.70161 -0.285574,-0.20805 -0.603613,-0.3783 -0.947614,-0.45893 -0.399289,-0.0936 -0.816023,-0.0635 -1.224445,-0.10069 -0.204211,-0.0186 -0.408385,-0.0545 -0.59927,-0.12943 -0.190886,-0.0749 -0.36868,-0.19053 -0.497368,-0.35018 -0.136441,-0.16926 -0.211551,-0.37841 -0.285863,-0.58272 -0.07431,-0.20432 -0.152891,-0.41278 -0.294408,-0.57782 -0.145095,-0.16922 -0.347418,-0.281 -0.557854,-0.35451 -0.210436,-0.0735 -0.431174,-0.11181 -0.649483,-0.15685 -0.21831,-0.045 -0.437459,-0.0979 -0.636789,-0.19764 -0.19933,-0.0998 -0.379442,-0.2511 -0.476957,-0.45154 -0.100005,-0.20556 -0.105785,-0.44271 -0.161988,-0.66429 -0.0281,-0.11079 -0.06993,-0.21983 -0.138846,-0.31102 -0.06891,-0.0912 -0.167215,-0.16354 -0.279437,-0.18523 -0.09591,-0.0185 -0.194507,2.6e-4 -0.291176,0.0143 -0.09667,0.014 -0.198683,0.0227 -0.289094,-0.0143 -0.06499,-0.0266 -0.119023,-0.0751 -0.162859,-0.12999 -0.04384,-0.0549 -0.0785,-0.11631 -0.114516,-0.17659 -0.03601,-0.0603 -0.07395,-0.12017 -0.123108,-0.17031 -0.04915,-0.0502 -0.110778,-0.0904 -0.179788,-0.10338 -0.04933,-0.009 -0.100355,-0.004 -0.149513,0.006 -0.04916,0.0102 -0.0971,0.0255 -0.145914,0.0371 -0.04882,0.0117 -0.09915,0.0198 -0.149136,0.0152 -0.04998,-0.005 -0.09995,-0.0229 -0.135708,-0.0582 -0.03582,-0.0353 -0.05489,-0.0851 -0.06009,-0.13508 -0.0052,-0.05 0.0025,-0.10051 0.01402,-0.14944 0.01155,-0.0489 0.02696,-0.0969 0.0376,-0.14605 0.01064,-0.0491 0.01645,-0.10006 0.0085,-0.1497 -0.0092,-0.0571 -0.03654,-0.11052 -0.07451,-0.15411 -0.03797,-0.0436 -0.08623,-0.0776 -0.138398,-0.10249 -0.104333,-0.0498 -0.221896,-0.0633 -0.337196,-0.0718 -0.115301,-0.008 -0.232296,-0.0129 -0.342881,-0.0466 -0.05529,-0.0169 -0.108673,-0.0411 -0.155378,-0.0752 -0.04671,-0.0341 -0.08662,-0.0782 -0.112178,-0.13004 -0.04335,-0.0879 -0.04286,-0.19091 -0.03104,-0.28823 0.01183,-0.0973 0.03409,-0.19407 0.03104,-0.29205 -0.0034,-0.1096 -0.03864,-0.2164 -0.08869,-0.31397 -0.05005,-0.0976 -0.114704,-0.1868 -0.180588,-0.27445 -0.06589,-0.0876 -0.133437,-0.17439 -0.190086,-0.26827 -0.05665,-0.0939 -0.102461,-0.19576 -0.120904,-0.30385 -0.01629,-0.0955 -0.01158,-0.19312 -0.0072,-0.28986 0.0044,-0.0968 0.0072,-0.19357 0.0072,-0.29041 l 0,-0.58027 c 0,-0.0973 0.0056,-0.19444 0.01473,-0.29128 0.0091,-0.0969 0.01844,-0.19754 -0.01473,-0.28899 -0.02378,-0.0656 -0.06891,-0.12174 -0.121083,-0.16805 -0.05218,-0.0463 -0.111547,-0.0837 -0.170531,-0.12091 -0.05898,-0.0373 -0.118204,-0.0749 -0.169951,-0.12167 -0.05175,-0.0468 -0.09613,-0.10363 -0.118706,-0.16964 -0.03159,-0.0924 -0.01815,-0.19339 -0.0033,-0.28988 0.01488,-0.0965 0.03065,-0.19668 0.0033,-0.29039 -0.01951,-0.0668 -0.06013,-0.12597 -0.108943,-0.17554 -0.04882,-0.0496 -0.105821,-0.0903 -0.163568,-0.12906 -0.05775,-0.0388 -0.116697,-0.0761 -0.170701,-0.11996 -0.054,-0.0439 -0.103328,-0.0949 -0.137059,-0.15571 -0.04808,-0.0867 -0.06188,-0.18916 -0.056,-0.28816 0.0059,-0.099 0.03036,-0.19585 0.05482,-0.29196 0.02446,-0.0961 0.04913,-0.19288 0.05542,-0.29186 0.0063,-0.099 -0.0069,-0.20143 -0.05423,-0.28856 -0.03319,-0.0611 -0.08195,-0.11247 -0.135502,-0.15676 -0.05355,-0.0443 -0.11215,-0.082 -0.169688,-0.12097 -0.05754,-0.039 -0.11446,-0.0796 -0.163574,-0.12873 -0.04911,-0.0492 -0.09043,-0.10759 -0.111507,-0.17381 -0.02956,-0.0929 -0.01753,-0.19333 -0.0039,-0.28986 0.01363,-0.0965 0.02842,-0.19605 0.0039,-0.29041 -0.0175,-0.0674 -0.05449,-0.12858 -0.100249,-0.18102 -0.04576,-0.0524 -0.100211,-0.0966 -0.156532,-0.1375 -0.112642,-0.0818 -0.23604,-0.15346 -0.32349,-0.26176 -0.06338,-0.0785 -0.104902,-0.1734 -0.126671,-0.2719 -0.02177,-0.0985 -0.02425,-0.20064 -0.01459,-0.30106 0.0193,-0.20084 0.08609,-0.39351 0.141265,-0.58758 0.02716,-0.0955 0.05172,-0.19259 0.0571,-0.29176 0.0054,-0.0992 -0.0094,-0.20138 -0.0571,-0.28851 -0.03328,-0.0609 -0.08144,-0.11248 -0.13437,-0.15729 -0.05293,-0.0448 -0.110837,-0.0833 -0.167859,-0.12277 -0.05702,-0.0395 -0.113551,-0.0803 -0.162893,-0.12899 -0.04934,-0.0487 -0.09155,-0.10601 -0.115148,-0.17122 -0.0353,-0.0976 -0.02667,-0.20616 -1.76e-4,-0.30647 0.02649,-0.10031 0.06995,-0.19521 0.10452,-0.29303 0.03457,-0.0978 0.06052,-0.20141 0.04988,-0.30461 -0.0053,-0.0516 -0.01995,-0.10256 -0.04574,-0.14757 -0.02579,-0.045 -0.063,-0.0839 -0.108485,-0.10886 -0.04307,-0.0236 -0.09238,-0.0343 -0.141457,-0.0365 -0.04907,-0.002 -0.09816,0.004 -0.146617,0.0119 -0.09692,0.0161 -0.195242,0.0405 -0.292197,0.0246 -0.06935,-0.0114 -0.134356,-0.0432 -0.190429,-0.0855 -0.05607,-0.0424 -0.103651,-0.0951 -0.146089,-0.15106 -0.08488,-0.11203 -0.150562,-0.23846 -0.243753,-0.34367 -0.09145,-0.10325 -0.206189,-0.18249 -0.313483,-0.26916 -0.107295,-0.0867 -0.210597,-0.18515 -0.266788,-0.31111 -0.03992,-0.0895 -0.05398,-0.18887 -0.05298,-0.28686 9.94e-4,-0.098 0.01655,-0.19521 0.03367,-0.29169 0.03425,-0.19298 0.07462,-0.39397 0.01931,-0.58199 -0.03943,-0.13402 -0.125449,-0.25067 -0.227659,-0.34591 -0.10221,-0.0952 -0.220699,-0.17101 -0.339209,-0.24499 -0.118511,-0.074 -0.238353,-0.14712 -0.344437,-0.23802 -0.106084,-0.0909 -0.198802,-0.20135 -0.249236,-0.33163 -0.07047,-0.18204 -0.05304,-0.38514 -0.02591,-0.57845 0.02713,-0.19331 0.06287,-0.39042 0.02591,-0.58209 -0.03386,-0.17559 -0.127348,-0.33506 -0.241691,-0.47255 -0.114344,-0.13749 -0.249747,-0.25561 -0.381797,-0.37619 -0.132051,-0.12059 -0.26235,-0.2454 -0.363545,-0.39284 -0.101196,-0.14743 -0.172428,-0.32041 -0.173509,-0.49923 -5.91e-4,-0.0978 0.0196,-0.19443 0.0298,-0.29172 0.0102,-0.0973 0.0097,-0.19907 -0.0298,-0.28855 -0.0281,-0.0636 -0.07467,-0.11772 -0.127226,-0.16329 -0.05256,-0.0456 -0.111321,-0.0833 -0.169468,-0.12152 -0.05815,-0.0382 -0.116202,-0.0772 -0.166845,-0.12491 -0.05064,-0.0477 -0.09395,-0.10482 -0.116732,-0.17055 -0.03184,-0.0919 -0.02285,-0.19224 -0.01412,-0.28908 0.0087,-0.0968 0.01412,-0.19396 0.01412,-0.29119 l 0,-1.74081 c 0,-0.0971 0.0048,-0.19417 0.01266,-0.29098 0.0078,-0.0968 0.01597,-0.19648 -0.01266,-0.28929 -0.02046,-0.0663 -0.05961,-0.1258 -0.106728,-0.17677 -0.04712,-0.051 -0.102165,-0.0939 -0.15854,-0.13444 -0.112751,-0.081 -0.234784,-0.15577 -0.315002,-0.26907 -0.08674,-0.12251 -0.114988,-0.2789 -0.106788,-0.42879 0.0082,-0.14989 0.05009,-0.29566 0.09287,-0.43955 0.04278,-0.14389 0.08697,-0.2887 0.100003,-0.43825 0.01303,-0.14955 -0.0074,-0.30637 -0.08609,-0.43422 -0.07225,-0.11742 -0.186828,-0.20119 -0.296803,-0.28433 -0.109975,-0.0831 -0.221585,-0.17274 -0.283468,-0.29594 -0.04386,-0.0873 -0.05984,-0.1864 -0.06156,-0.2841 -0.0017,-0.0977 0.01,-0.1951 0.02214,-0.29205 0.02434,-0.19392 0.03942,-0.38896 0.03942,-0.58439 l 0,-0.58027 0,-2.90135 0,-9.28434 0,-8.12379 0,-2.32108 0,-0.58027 c 0,-0.0971 -0.0044,-0.19405 -0.01155,-0.29084 -0.0071,-0.0968 -0.01461,-0.19597 0.01155,-0.28943 0.01876,-0.067 0.05487,-0.12829 0.09939,-0.18174 0.04453,-0.0534 0.09739,-0.0994 0.152608,-0.14171 0.110435,-0.0846 0.232021,-0.15636 0.328269,-0.25682 0.09699,-0.10124 0.163784,-0.22701 0.247813,-0.33924 0.04201,-0.0561 0.08877,-0.10924 0.144021,-0.15238 0.05525,-0.0431 0.119475,-0.0761 0.188436,-0.0887 0.09648,-0.0176 0.195042,0.005 0.291842,0.0209 0.0484,0.008 0.09733,0.014 0.146342,0.0124 0.04901,-0.002 0.09834,-0.0112 0.142087,-0.0333 0.04648,-0.0235 0.08545,-0.0608 0.113556,-0.10467 0.02811,-0.0439 0.04557,-0.0941 0.05374,-0.14557 0.01633,-0.1029 -0.0041,-0.20836 -0.03567,-0.30764 -0.03159,-0.0993 -0.07433,-0.19479 -0.104541,-0.2945 -0.03021,-0.0997 -0.04769,-0.20603 -0.02708,-0.30816 0.02275,-0.11275 0.09136,-0.21317 0.179554,-0.28701 0.08819,-0.0738 0.195077,-0.12271 0.305239,-0.15579 0.220325,-0.0662 0.45525,-0.0719 0.675749,-0.13747 0.138787,-0.0413 0.272068,-0.10727 0.378304,-0.20566 0.106237,-0.0984 0.18396,-0.23094 0.201966,-0.37461 0.0121,-0.0965 -0.0025,-0.19409 -0.01285,-0.29082 -0.01033,-0.0967 -0.01608,-0.19657 0.01285,-0.28945 0.02063,-0.0663 0.05833,-0.12635 0.103924,-0.17867 0.0456,-0.0523 0.09905,-0.0972 0.154407,-0.13909 0.110711,-0.0837 0.231369,-0.15734 0.32194,-0.26251 0.143521,-0.16666 0.194418,-0.39095 0.254526,-0.60251 0.03005,-0.10578 0.06378,-0.21123 0.114781,-0.30866 0.051,-0.0974 0.1203,-0.18714 0.210964,-0.24937 0.09592,-0.0658 0.211054,-0.098 0.325864,-0.1169 0.114811,-0.0188 0.231418,-0.0254 0.345997,-0.0456 0.114579,-0.0202 0.229192,-0.0553 0.322707,-0.12449 0.04676,-0.0346 0.08768,-0.0776 0.117254,-0.12769 0.02957,-0.0501 0.04755,-0.10743 0.04872,-0.16559 0.001,-0.0516 -0.01093,-0.10254 -0.02605,-0.15186 -0.01511,-0.0493 -0.03345,-0.0977 -0.04573,-0.14778 -0.01228,-0.0501 -0.01837,-0.10265 -0.0086,-0.15329 0.0098,-0.0506 0.03701,-0.0994 0.08034,-0.12734 0.04277,-0.0276 0.09691,-0.0326 0.147267,-0.0252 0.05036,0.007 0.09821,0.0262 0.146132,0.0434 0.04792,0.0172 0.09728,0.033 0.148173,0.034 0.02545,5e-4 0.0511,-0.003 0.07511,-0.0112 0.02401,-0.008 0.04634,-0.0222 0.06358,-0.0409 0.01731,-0.0188 0.02917,-0.0423 0.03568,-0.067 0.0065,-0.0247 0.0078,-0.0506 0.0055,-0.0761 -0.0046,-0.0509 -0.0231,-0.0994 -0.04143,-0.14709 -0.01833,-0.0477 -0.03683,-0.0962 -0.04132,-0.14711 -0.0022,-0.0255 -8.99e-4,-0.0514 0.0057,-0.0761 0.0066,-0.0247 0.01849,-0.0482 0.03586,-0.0669 0.01696,-0.0183 0.03879,-0.0318 0.06219,-0.0405 0.0234,-0.009 0.04837,-0.0127 0.07332,-0.0136 0.0499,-0.002 0.09937,0.008 0.148138,0.0192 0.09753,0.0214 0.196764,0.0349 0.296623,0.0349 l 0.580271,0 c 0.09957,0 0.198578,0.0128 0.296028,0.0333 0.04873,0.0102 0.09809,0.02 0.147853,0.0184 0.02488,-8.3e-4 0.04978,-0.005 0.07325,-0.0129 0.02348,-0.008 0.04553,-0.0211 0.06314,-0.0387 0.0176,-0.0176 0.03044,-0.0397 0.03872,-0.0631 0.0083,-0.0235 0.0121,-0.0484 0.01294,-0.0733 0.0017,-0.0498 -0.0081,-0.0991 -0.01837,-0.14785 -0.02045,-0.0974 -0.03328,-0.19646 -0.03328,-0.29603 0,-0.19343 0,-0.38685 0,-0.58028 0,-0.77369 0,-1.54739 0,-2.32108 0,-0.19342 0,-0.38685 0,-0.58027 0,-0.0971 -0.0048,-0.19415 -0.01247,-0.29096 -0.0077,-0.0968 -0.01573,-0.19638 0.01247,-0.28931 0.02016,-0.0664 0.05877,-0.12623 0.105422,-0.17763 0.04666,-0.0514 0.101314,-0.0949 0.157474,-0.13571 0.11232,-0.0816 0.234195,-0.15577 0.317375,-0.26693 0.101472,-0.13561 0.13345,-0.31185 0.132698,-0.48122 -7.52e-4,-0.16937 -0.03105,-0.33721 -0.04063,-0.50631 -0.0096,-0.1691 0.0033,-0.34521 0.08237,-0.49497 0.03956,-0.0749 0.09561,-0.1418 0.165952,-0.18895 0.07035,-0.0471 0.155304,-0.0738 0.239873,-0.0694 0.103513,0.005 0.198971,0.0555 0.300015,0.0786 0.05052,0.0116 0.103516,0.0163 0.154118,0.005 0.0506,-0.0112 0.09873,-0.0397 0.126138,-0.0837 0.02684,-0.0431 0.0317,-0.0969 0.02455,-0.1471 -0.0072,-0.0502 -0.02534,-0.0981 -0.04197,-0.14606 -0.01663,-0.048 -0.03194,-0.0972 -0.03296,-0.14797 -5.07e-4,-0.0254 0.0026,-0.0509 0.01078,-0.075 0.0081,-0.024 0.02139,-0.0465 0.03959,-0.0642 0.01821,-0.0177 0.04108,-0.0303 0.06534,-0.0377 0.02427,-0.007 0.04992,-0.01 0.07529,-0.009 0.05073,0.002 0.0997,0.0185 0.147542,0.0355 0.04785,0.017 0.0959,0.0351 0.146309,0.0412 0.05041,0.006 0.104362,-8.2e-4 0.145791,-0.0302 0.02088,-0.0148 0.03786,-0.0348 0.05017,-0.0572 0.01231,-0.0224 0.02001,-0.0473 0.0238,-0.0726 0.0076,-0.0506 -3.2e-4,-0.10239 -0.01338,-0.15187 -0.01306,-0.0495 -0.03122,-0.0975 -0.04468,-0.14687 -0.01347,-0.0494 -0.02224,-0.10093 -0.01591,-0.15172 0.0072,-0.0579 0.03414,-0.11254 0.07242,-0.15657 0.03829,-0.044 0.08757,-0.0778 0.140761,-0.10178 0.106381,-0.048 0.225706,-0.0572 0.342306,-0.0622 0.116599,-0.005 0.235164,-0.007 0.346531,-0.0416 0.05568,-0.0175 0.109154,-0.0433 0.154716,-0.0797 0.04556,-0.0365 0.08302,-0.0839 0.103804,-0.1384 0.01742,-0.0457 0.02286,-0.0953 0.02166,-0.14415 -0.0012,-0.0489 -0.0089,-0.0974 -0.01689,-0.14559 -0.01607,-0.0965 -0.03351,-0.19705 -0.0048,-0.29053 0.01615,-0.0525 0.04656,-0.10027 0.08578,-0.13875 0.03922,-0.0385 0.08707,-0.0678 0.138403,-0.0873 0.102672,-0.0391 0.217167,-0.039 0.324743,-0.0166 0.215152,0.0447 0.403317,0.17269 0.611617,0.24269 0.356585,0.11983 0.758723,0.0599 1.092389,-0.11385 0.333666,-0.17372 0.603538,-0.45293 0.814188,-0.7646 0.421299,-0.62334 0.617704,-1.37185 0.994777,-2.0229"
       id="path7843"
       inkscape:path-effect="#path-effect7845"
       inkscape:original-d="m 68.738545,923.19676 c 2.26019,-1.52833 5.728528,-3.33566 8.123791,-4.64217 0.759395,-0.41421 1.489349,-0.9229 2.321083,-1.16054 0.557945,-0.15941 1.17786,0.14071 1.740813,0 0.265368,-0.0663 0.335607,-0.45794 0.580271,-0.58027 0.173003,-0.0865 0.407267,0.0865 0.58027,0 0.244664,-0.12233 0.320766,-0.49377 0.580271,-0.58027 0.366996,-0.12233 0.773695,0 1.160542,0 0.386847,0 0.773694,0 1.160541,0 2.12766,0 4.255319,0 6.382979,0 1.180556,0 0.327256,0 2.321083,0 0.386847,0 0.781203,0.0759 1.160542,0 0.599777,-0.11998 1.141035,-0.46029 1.740812,-0.58027 0.379339,-0.0759 0.773695,0 1.160542,0 0.773694,0 1.547389,0 2.321085,0 2.32108,0 4.64216,0 6.96325,0 5.41586,0 10.83172,0 16.24758,0 4.25532,0 8.51064,0 12.76596,0 1.16054,0 2.32108,0 3.48162,0 0.38685,0 0.7737,0 1.16054,0 0.19343,0 0.40727,-0.0865 0.58028,0 0.24466,0.12233 0.32076,0.49377 0.58027,0.58027 0.36699,0.12233 0.78524,-0.0938 1.16054,0 0.41959,0.10489 0.75024,0.44348 1.16054,0.58027 0.18351,0.0612 0.39262,-0.0469 0.58027,0 0.5934,0.14835 1.19373,0.30673 1.74081,0.58027 0.24467,0.12233 0.33561,0.45794 0.58027,0.58027 0.17301,0.0865 0.39677,-0.0612 0.58027,0 4.20314,1.40108 -0.91486,-0.16729 1.74082,1.16054 0.173,0.0865 0.40726,-0.0865 0.58027,0 0.24466,0.12233 0.3356,0.45793 0.58027,0.58027 0.24206,0.12103 1.02545,-0.13509 1.16054,0 0.13677,0.13678 -0.173,0.49378 0,0.58028 0.34601,0.17301 0.79355,-0.12233 1.16054,0 0.25951,0.0865 0.33561,0.45794 0.58027,0.58027 0.17301,0.0865 0.38685,0 0.58027,0 0.19343,0 0.38685,0 0.58027,0 0.19343,0 0.4435,-0.13677 0.58027,0 0.13678,0.13677 -0.13677,0.4435 0,0.58027 0.1351,0.13509 0.91848,-0.12103 1.16055,0 0.48932,0.24466 0.67121,0.91588 1.16054,1.16054 0.173,0.0865 0.4435,-0.13677 0.58027,0 0.13677,0.13677 -0.13677,0.4435 0,0.58027 0.13677,0.13677 0.4435,-0.13677 0.58027,0 0.13677,0.13677 -0.0865,0.40727 0,0.58027 0.12233,0.24466 0.38685,0.38685 0.58027,0.58027 0.38685,0.38685 0.77369,0.7737 1.16054,1.16054 0.38685,0.38685 0.7737,0.7737 1.16054,1.16054 0.38685,0.38685 0.72288,0.8323 1.16054,1.16055 0.34601,0.2595 0.80068,0.34035 1.16055,0.58027 0.2276,0.15173 0.3356,0.45794 0.58027,0.58027 0.173,0.0865 0.4435,-0.13677 0.58027,0 0.30583,0.30583 0.27444,0.85471 0.58027,1.16054 0.30583,0.30583 0.78967,0.35775 1.16054,0.58027 0.59801,0.35881 1.16054,0.77369 1.74081,1.16054 0.58027,0.38685 1.19624,0.72488 1.74081,1.16054 0.42721,0.34176 0.72288,0.83229 1.16055,1.16054 0.346,0.25951 0.85471,0.27445 1.16054,0.58028 0.13677,0.13677 -0.0865,0.40726 0,0.58027 0.12233,0.24466 0.38685,0.38684 0.58027,0.58027 0.19342,0.19342 0.38685,0.38684 0.58027,0.58027 0.19342,0.19342 0.44631,0.34178 0.58027,0.58027 0.21182,0.37709 0.4435,0.75023 0.58027,1.16054 0.0612,0.18349 -0.0865,0.40727 0,0.58027 0.12233,0.24466 0.45794,0.33561 0.58027,0.58027 0.0865,0.17301 -0.0865,0.40727 0,0.58027 0.12234,0.24467 0.45794,0.33561 0.58027,0.58027 0.0865,0.17301 -0.0865,0.40727 0,0.58027 0.12233,0.24467 0.45794,0.33561 0.58027,0.58027 0.0865,0.17301 0,0.38685 0,0.58028 0,0.19342 0,0.38684 0,0.58027 0,0.38684 0,0.77369 0,1.16054 0,0.38685 -0.0759,0.7812 0,1.16054 0.11998,0.59978 0.47972,1.13748 0.58027,1.74081 0.0954,0.57238 -0.1407,1.17786 0,1.74081 0.0663,0.26537 0.51393,0.3149 0.58028,0.58028 0.14073,0.56294 -0.14071,1.17785 0,1.74081 0.0663,0.26536 0.45793,0.3356 0.58027,0.58027 0.0865,0.173 0,0.38685 0,0.58027 0,0.38685 -0.0938,0.78523 0,1.16054 0.0117,0.047 1.13726,2.25127 1.16054,2.32108 0.0612,0.1835 0,0.38685 0,0.58027 0,0.38685 -0.12233,0.79355 0,1.16055 0.0865,0.2595 0.49377,0.32076 0.58027,0.58027 0.12233,0.36699 -0.12233,0.79354 0,1.16054 0.173,0.51901 0.98754,0.64153 1.16054,1.16054 0.12233,0.367 0,0.77369 0,1.16054 0,0.38685 0,0.7737 0,1.16054 0,1.54739 0,3.09478 0,4.64217 0,0.77369 0,1.54739 0,2.32108 0,0.19343 0.13677,0.4435 0,0.58027 -2.83879,2.83879 0.60369,-3.27344 -1.16054,2.90136 -0.19159,0.67056 -0.84866,1.11704 -1.16054,1.74081 -0.46583,0.93165 -0.69472,1.9697 -1.16054,2.90135 -0.31189,0.62378 -0.84866,1.11704 -1.16055,1.74082 -0.27354,0.54708 -0.22475,1.24308 -0.58027,1.74081 -0.63597,0.89036 -1.54739,1.54739 -2.32108,2.32108 -1.16054,1.16054 -2.32108,2.32109 -3.48163,3.48163 -0.38684,0.38684 -0.83229,0.72287 -1.16054,1.16054 -0.2595,0.346 -0.34036,0.80067 -0.58027,1.16054 -0.15173,0.2276 -0.38684,0.38685 -0.58027,0.58027 -0.19342,0.19342 -0.35267,0.42854 -0.58027,0.58027 -0.35987,0.23991 -0.92063,0.2204 -1.16054,0.58027 -0.21458,0.32188 0.21458,0.83867 0,1.16054 -0.23991,0.35987 -0.85471,0.27444 -1.16054,0.58027 -0.13678,0.13678 0.13677,0.4435 0,0.58028 -0.30583,0.30583 -0.85471,0.27444 -1.16054,0.58027 -0.13677,0.13677 0.173,0.49377 0,0.58027 -0.34601,0.173 -0.83867,-0.21459 -1.16055,0 -0.35986,0.23991 -0.27444,0.85471 -0.58027,1.16054 -0.65358,0.65359 -1.66749,0.50695 -2.32108,1.16054 -0.30583,0.30583 -0.2204,0.92061 -0.58027,1.16051 -0.32188,0.2146 -0.83866,-0.2145 -1.16054,0 -0.35987,0.2399 -0.27444,0.8547 -0.58027,1.1606 -0.13509,0.1351 -0.91848,-0.1211 -1.16054,0 -1.28301,0.6415 -0.18007,0.3601 -0.58027,1.16054 -1.20748,2.415 0.04,-0.62034 -1.16055,0.5803 -0.13677,0.1368 0.13677,0.4435 0,0.5803 -0.13677,0.1367 -0.4435,-0.1368 -0.58027,0 -0.13677,0.1367 0.0865,0.4072 0,0.5802 -0.6415,1.283 -0.36014,0.1801 -1.16054,0.5803 -0.24466,0.1223 -0.33561,0.4579 -0.58027,0.5803 -0.34601,0.173 -0.81453,-0.173 -1.16054,0 -0.48933,0.2446 -0.67122,0.9159 -1.16054,1.1605 -0.17301,0.087 -0.38685,0 -0.58027,0 -0.38685,0 -0.7737,0 -1.16055,0 -0.19342,0 -0.39676,-0.061 -0.58027,0 -0.4103,0.1368 -0.75023,0.4435 -1.16054,0.5803 -0.18351,0.061 -0.38684,0 -0.58027,0 -0.58027,0 -1.16054,0 -1.74081,0 -1.35397,0 -2.70793,0 -4.0619,0 -3.48162,0 -6.96325,0 -10.44487,0 -0.96712,0 -1.93424,0 -2.90135,0 -0.58028,0 -1.17787,-0.1408 -1.74082,0 -1.01051,0.2526 -1.94951,0.7375 -2.90135,1.1605 -0.79046,0.3513 -1.48189,0.9508 -2.32108,1.1606 -0.7506,0.1876 -1.55212,-0.085 -2.32109,0 -0.98024,0.1089 -1.94453,0.341 -2.90135,0.5802 -4.8299,1.2075 0.70044,-0.04 -2.90135,1.1606 -0.18351,0.061 -0.39677,-0.061 -0.58028,0 -0.4103,0.1368 -0.75023,0.4435 -1.16054,0.5803 -0.1835,0.061 -0.38684,0 -0.58027,0 -0.38685,0 -0.77369,0 -1.16054,0 -1.54739,0 -3.09478,0 -4.64217,0 -1.16054,0 -2.32108,0 -3.48162,0 -0.386849,0 -0.773696,0 -1.160544,0 -0.193423,0 -0.407267,0.087 -0.58027,0 -0.244664,-0.1224 -0.335608,-0.458 -0.580271,-0.5803 -1.429179,-0.7146 0.523826,1.6844 -1.740813,-0.5803 -0.136775,-0.1368 0.136769,-0.4435 0,-0.5803 -0.135093,-0.1351 -0.91848,0.1211 -1.160541,0 -1.769571,-0.8847 1.061288,-0.46 -1.740813,-1.1605 -0.375291,-0.094 -0.785246,0.094 -1.160541,0 -0.419597,-0.1049 -0.758968,-0.4196 -1.160542,-0.5803 -0.567911,-0.2271 -1.172901,-0.3531 -1.740812,-0.5802 -0.401574,-0.1607 -0.740944,-0.4754 -1.160542,-0.5803 -0.375294,-0.094 -0.785247,0.094 -1.160541,0 -0.419598,-0.1049 -0.758968,-0.4197 -1.160542,-0.5803 -0.567911,-0.2271 -1.193728,-0.3067 -1.740812,-0.5803 -0.244664,-0.1223 -0.335607,-0.4579 -0.580271,-0.5802 -0.547085,-0.2736 -1.172901,-0.3531 -1.740812,-0.5803 -0.401574,-0.1606 -0.758968,-0.4196 -1.160542,-0.5803 -0.567911,-0.2271 -1.147414,-0.4319 -1.740812,-0.5802 -0.187647,-0.047 -0.386848,0 -0.580271,0 -0.580271,0 -1.160542,0 -1.740813,0 -0.58027,0 -1.190321,0.1835 -1.740812,0 -0.661612,-0.2206 -1.16054,-0.7737 -1.740812,-1.1606 -0.580269,-0.38684 -1.099802,-0.88584 -1.740813,-1.16054 -0.733023,-0.3142 -1.637225,-0.17 -2.321083,-0.5803 -0.370871,-0.2225 -0.274441,-0.8547 -0.580271,-1.16054 -0.611659,-0.61166 -1.709424,-0.54888 -2.321083,-1.16054 -0.305829,-0.30583 -0.274441,-0.85471 -0.580271,-1.16054 -0.136771,-0.13677 -0.407267,0.0865 -0.58027,0 -0.244664,-0.12233 -0.335608,-0.45794 -0.580271,-0.58027 -0.173004,-0.0865 -0.4435,0.13677 -0.580271,0 -0.136771,-0.13677 0.0865,-0.40727 0,-0.58027 -1.207474,-2.41495 0.04006,0.62033 -1.160542,-0.58027 -0.136775,-0.13678 0.06117,-0.39678 0,-0.58028 -0.136773,-0.41031 -0.443494,-0.75022 -0.58027,-1.16054 -0.06117,-0.18349 0,-0.38684 0,-0.58027 0,-0.19342 0,-0.38684 0,-0.58027 0,-0.19342 0.0865,-0.40727 0,-0.58027 -0.122332,-0.24466 -0.457939,-0.33561 -0.580271,-0.58027 -0.0865,-0.173 0.0865,-0.40727 0,-0.58027 -0.122332,-0.24466 -0.457939,-0.33561 -0.580271,-0.58027 -0.173003,-0.34601 0.173001,-0.81454 0,-1.16054 -0.122334,-0.24467 -0.457942,-0.33561 -0.580271,-0.58027 -0.0865,-0.17301 0.0865,-0.40727 0,-0.58027 -0.122332,-0.24467 -0.493769,-0.32077 -0.580271,-0.58028 -0.122331,-0.36699 0,-0.77369 0,-1.16054 0,-0.19342 0.0865,-0.40726 0,-0.58027 -0.122328,-0.24466 -0.457939,-0.33561 -0.58027,-0.58027 -0.121031,-0.24206 0.13509,-1.02545 0,-1.16054 -0.136771,-0.13677 -0.407268,0.0865 -0.580271,0 -0.244664,-0.12233 -0.386847,-0.38685 -0.580271,-0.58027 -0.193424,-0.19342 -0.457939,-0.33561 -0.580271,-0.58027 -0.173003,-0.34601 0.173001,-0.81454 0,-1.16054 -0.18112,-0.36224 -0.97943,-0.79831 -1.160541,-1.16055 -0.0432,-0.0864 0.04165,-1.0356 0,-1.16054 -1.401042,-4.20314 0.167294,0.91486 -1.160542,-1.74081 -0.0865,-0.173 0.0865,-0.40727 0,-0.58027 -0.122332,-0.24466 -0.457939,-0.33561 -0.580271,-0.58027 -0.0865,-0.173 0,-0.38685 0,-0.58027 0,-0.58027 0,-1.16054 0,-1.74081 0,-0.19343 0.0865,-0.40727 0,-0.58027 -0.122332,-0.24467 -0.513926,-0.3149 -0.58027,-0.58028 -0.140735,-0.56294 0.140736,-1.17786 0,-1.74081 -0.06634,-0.26537 -0.493768,-0.32076 -0.580271,-0.58027 -0.12233,-0.36699 0,-0.77369 0,-1.16054 0,-0.19342 0,-0.38685 0,-0.58027 0,-0.96712 0,-1.93424 0,-2.90135 0,-3.09478 0,-6.18956 0,-9.28434 0,-2.70793 0,-5.41586 0,-8.12379 0,-0.77369 0,-1.54739 0,-2.32108 0,-0.19343 0,-0.38685 0,-0.58027 0,-0.19343 -0.0865,-0.40727 0,-0.58027 0.122332,-0.24467 0.38685,-0.38685 0.580271,-0.58027 0.193426,-0.19343 0.335605,-0.45794 0.58027,-0.58028 0.173002,-0.0865 0.443498,0.13678 0.580271,0 0.135089,-0.13509 -0.121031,-0.91848 0,-1.16054 0.641505,-1.28301 0.360141,-0.18007 1.160542,-0.58027 0.244663,-0.12233 0.457938,-0.3356 0.58027,-0.58027 0.0865,-0.173 -0.0865,-0.40727 0,-0.58027 0.122332,-0.24466 0.428537,-0.35267 0.580271,-0.58027 0.239913,-0.35987 0.274442,-0.85471 0.580271,-1.16054 1.200601,-1.2006 -0.04693,1.83468 1.160542,-0.58027 0.0865,-0.17301 -0.136771,-0.4435 0,-0.58027 0.136771,-0.13677 0.443499,0.13677 0.58027,0 0.136772,-0.13677 -0.136771,-0.4435 0,-0.58027 0.136772,-0.13677 0.386848,0 0.580271,0 0.193424,0 0.386847,0 0.580271,0 0.193424,0 0.4435,0.13677 0.580271,0 0.136771,-0.13677 0,-0.38685 0,-0.58027 0,-0.19343 0,-0.38685 0,-0.58028 0,-0.77369 0,-1.54738 0,-2.32108 0,-0.19342 0,-0.38685 0,-0.58027 0,-0.19342 -0.0865,-0.40727 0,-0.58027 0.122332,-0.24466 0.457939,-0.33561 0.580271,-0.58027 0.714589,-1.42918 -1.684373,0.52383 0.58027,-1.74081 0.136772,-0.13677 0.4435,0.13677 0.580271,0 0.136771,-0.13677 -0.136769,-0.4435 0,-0.58027 0.136774,-0.13678 0.443502,0.13677 0.580271,0 0.136774,-0.13678 -0.136771,-0.4435 0,-0.58027 1.200601,-1.20061 -0.04693,1.83467 1.160542,-0.58028 0.0865,-0.173 -0.136772,-0.4435 0,-0.58027 0.273542,-0.27354 0.863354,0.24766 1.160541,0 1.050702,-0.87558 1.768356,-2.13522 2.901354,-2.90135 z"
       inkscape:connector-curvature="0"
       sodipodi:nodetypes="sssssssssssssssssssssssssssssssssssssssssssssssssssssssssssssssssssssssssssssssssssssssssssssssssssssssssssssssssssssssssssssssssssssssssssssssssssssssssssssssssssssssssssssssssssssssssssssssssssssssssssssssssssssssssssssssssssssssssssssssssssssss" />
    <g
       id="g3819"
       transform="matrix(1,0,0,0.93625217,-24.720252,109.46279)"
       style="stroke-width:1.55022538;stroke-miterlimit:4;stroke-dasharray:none">
      <path
         inkscape:connector-curvature="0"
         inkscape:original-d="m 72.533849,968.22236 0,-145.64797 219.165801,0"
         inkscape:path-effect="#path-effect3784"
         id="path3782"
         d="m 72.533849,968.22236 0,-145.64797 219.165801,0"
         style="fill:none;stroke:#000000;stroke-width:1.55022538;stroke-linecap:butt;stroke-linejoin:miter;stroke-miterlimit:4;stroke-opacity:1;stroke-dasharray:none;marker-start:url(#Arrow2Mstart);marker-end:url(#Arrow2Mend)" />
      <path
         inkscape:connector-curvature="0"
         inkscape:original-d="M 72.823985,821.99412 162.76596,767.44867"
         inkscape:path-effect="#path-effect3792-4"
         id="path3790-0"
         d="M 72.823985,821.99412 162.76596,767.44867"
         style="fill:none;stroke:#000000;stroke-width:1.55022538;stroke-linecap:butt;stroke-linejoin:miter;stroke-miterlimit:4;stroke-opacity:1;stroke-dasharray:none;marker-end:url(#Arrow2Mend)" />
    </g>
    <text
       sodipodi:linespacing="125%"
       id="text5219"
       y="823.60529"
       x="123.76718"
       style="font-size:6px;font-style:normal;font-variant:normal;font-weight:normal;font-stretch:normal;line-height:125%;letter-spacing:0px;word-spacing:0px;fill:#000000;fill-opacity:1;stroke:none;font-family:Arial;-inkscape-font-specification:Sans"
       xml:space="preserve"><tspan
         style="font-size:16px;font-style:oblique;font-family:Times New Roman;-inkscape-font-specification:Times New Roman"
         y="823.60529"
         x="123.76718"
         id="tspan5221"
         sodipodi:role="line">x</tspan></text>
    <text
       sodipodi:linespacing="125%"
       id="text5219-4"
       y="873.78943"
       x="272.06097"
       style="font-size:6px;font-style:normal;font-variant:normal;font-weight:normal;font-stretch:normal;line-height:125%;letter-spacing:0px;word-spacing:0px;fill:#000000;fill-opacity:1;stroke:none;font-family:Arial;-inkscape-font-specification:Sans"
       xml:space="preserve"><tspan
         style="font-size:16px;font-style:oblique;font-family:Times New Roman;-inkscape-font-specification:Times New Roman"
         y="873.78943"
         x="272.06097"
         id="tspan5221-5"
         sodipodi:role="line">y</tspan></text>
    <text
       sodipodi:linespacing="125%"
       id="text5219-5"
       y="1011.9462"
       x="31.86409"
       style="font-size:6px;font-style:normal;font-variant:normal;font-weight:normal;font-stretch:normal;line-height:125%;letter-spacing:0px;word-spacing:0px;fill:#000000;fill-opacity:1;stroke:none;font-family:Arial;-inkscape-font-specification:Sans"
       xml:space="preserve"><tspan
         style="font-size:16px;font-style:oblique;font-family:Times New Roman;-inkscape-font-specification:Times New Roman"
         y="1011.9462"
         x="31.86409"
         id="tspan5221-1"
         sodipodi:role="line">z</tspan></text>
    <text
       sodipodi:linespacing="125%"
       id="text5324"
       y="829.9422"
       x="191.06406"
       style="font-size:14px;font-style:normal;font-variant:normal;font-weight:normal;font-stretch:normal;line-height:125%;letter-spacing:0px;word-spacing:0px;fill:#000000;fill-opacity:1;stroke:none;font-family:Arial;-inkscape-font-specification:Sans"
       xml:space="preserve"><tspan
         style="font-size:14px;font-family:Times New Roman;-inkscape-font-specification:Times New Roman"
         y="829.9422"
         x="191.06406"
         id="tspan5326"
         sodipodi:role="line"><tspan
           id="tspan5360"
           style="font-size:14px;font-style:italic"><tspan
             id="tspan5368"
             style="font-size:14px;font-style:normal">(<tspan
   id="tspan5374"
   style="font-size:14px;font-style:italic">x</tspan>, <tspan
   id="tspan5376"
   style="font-size:14px;font-style:italic">y</tspan>, <tspan
   id="tspan5442"
   style="font-size:14px;font-style:italic">z</tspan>)  </tspan></tspan></tspan></text>
    <path
       style="fill:none;stroke:#000000;stroke-width:1.5;stroke-linecap:butt;stroke-linejoin:miter;stroke-miterlimit:4;stroke-opacity:1;stroke-dasharray:6, 1.5;stroke-dashoffset:0;marker-start:none"
       d="M 105.35066,954.67673 204.23522,844.5812"
       id="path5471"
       inkscape:path-effect="#path-effect5473"
       inkscape:original-d="M 105.35066,954.67673 204.23522,844.5812"
       inkscape:connector-curvature="0" />
    <text
       xml:space="preserve"
       style="font-size:32px;font-style:normal;font-variant:normal;font-weight:normal;font-stretch:normal;line-height:125%;letter-spacing:0px;word-spacing:0px;fill:#000000;fill-opacity:1;stroke:none;font-family:Arial;-inkscape-font-specification:Sans"
       x="136.89079"
       y="902.9726"
       id="text7201-1"
       sodipodi:linespacing="125%"><tspan
         sodipodi:role="line"
         id="tspan7203-4"
         x="136.89079"
         y="902.9726"
         style="font-size:16px;font-style:italic;font-family:Times New Roman;-inkscape-font-specification:Times New Roman">r</tspan></text>
    <text
       sodipodi:linespacing="125%"
       id="text5324-2"
       y="972.05304"
       x="75.447296"
       style="font-size:14px;font-style:normal;font-variant:normal;font-weight:normal;font-stretch:normal;line-height:125%;letter-spacing:0px;word-spacing:0px;fill:#000000;fill-opacity:1;stroke:none;font-family:Arial;-inkscape-font-specification:Sans"
       xml:space="preserve"><tspan
         style="font-size:14px;font-family:Times New Roman;-inkscape-font-specification:Times New Roman"
         y="972.05304"
         x="75.447296"
         id="tspan5326-3"
         sodipodi:role="line"><tspan
           id="tspan5360-2"
           style="font-size:14px;font-style:italic"><tspan
             id="tspan5368-2"
             style="font-size:14px;font-style:normal">(<tspan
   id="tspan5374-1"
   style="font-size:14px;font-style:italic">x'</tspan>, <tspan
   id="tspan5376-6"
   style="font-size:14px;font-style:italic">y'</tspan>, <tspan
   id="tspan5442-8"
   style="font-size:14px;font-style:italic">z'</tspan>)</tspan></tspan></tspan></text>
    <path
       sodipodi:type="arc"
       style="fill:#000000;stroke:#000000;stroke-width:1.005;stroke-linejoin:round;stroke-miterlimit:4;stroke-opacity:1;stroke-dasharray:none;stroke-dashoffset:0"
       id="path7750-3"
       sodipodi:cx="95.551735"
       sodipodi:cy="203.47377"
       sodipodi:rx="1.7951212"
       sodipodi:ry="1.8464104"
       d="m 97.346856,203.47377 a 1.7951212,1.8464104 0 1 1 -3.590242,0 1.7951212,1.8464104 0 1 1 3.590242,0 z"
       transform="matrix(1.3097046,0,0,1.2733239,79.967912,584.47598)" />
    <text
       xml:space="preserve"
       style="font-size:32px;font-style:normal;font-variant:normal;font-weight:normal;font-stretch:normal;line-height:125%;letter-spacing:0px;word-spacing:0px;fill:#000000;fill-opacity:1;stroke:none;font-family:Arial;-inkscape-font-specification:Sans"
       x="150.27513"
       y="985.91064"
       id="text7847"
       sodipodi:linespacing="125%"><tspan
         sodipodi:role="line"
         id="tspan7849"
         x="150.27513"
         y="985.91064"
         style="font-size:16px;font-style:italic;font-family:Times New Roman;-inkscape-font-specification:Times New Roman">v</tspan></text>
    <path
       sodipodi:type="arc"
       style="fill:#000000;stroke:#000000;stroke-width:1.005;stroke-linejoin:round;stroke-miterlimit:4;stroke-opacity:1;stroke-dasharray:none;stroke-dashoffset:0"
       id="path7750-3-2"
       sodipodi:cx="95.551735"
       sodipodi:cy="203.47377"
       sodipodi:rx="1.7951212"
       sodipodi:ry="1.8464104"
       d="m 97.346856,203.47377 a 1.7951212,1.8464104 0 1 1 -3.590242,0 1.7951212,1.8464104 0 1 1 3.590242,0 z"
       transform="matrix(1.3097046,0,0,1.2733239,-20.358442,695.61633)" />
  </g>
</svg>
